<svg width="1087" height="922" version="1.1" xmlns="http://www.w3.org/2000/svg" desc="Created with imagetracer.js version 1.2.6" ><path fill="rgb(0,0,0)" stroke="rgb(0,0,0)" stroke-width="1" opacity="0" d="M 351.5 0 L 1087 0 L 1087 260 L 898.5 260 L 898 261.5 L 806 566 Q 801.9 567.7 803 563.5 L 775 473.5 L 757 410.5 L 753 400.5 L 732 327.5 L 728 317.5 L 713 264.5 L 710.5 260 L 520 260 L 520 740.5 L 519 741.5 L 519 751.5 L 516 767.5 L 512 779.5 Q 505.7 794.7 493.5 804 L 479.5 812 L 465.5 816 L 448.5 817 L 447.5 818 L 434.5 818 L 433.5 817 L 416.5 816 L 399.5 811 Q 385.2 804.8 376 793.5 L 366 775.5 L 362 762.5 L 360 744.5 L 359 743.5 L 359 406 L 141 406 L 141 299 L 305 299 L 305 199 L 141 199 L 141 103 L 350.5 103 L 352 101.5 L 352 1.5 L 351.5 0 Z " /><path fill="rgb(0,0,0)" stroke="rgb(0,0,0)" stroke-width="1" opacity="0" d="M 944 426 L 946 426.5 L 946 767.5 L 947.5 769 L 1085.5 769 L 1087 768.5 L 1087 921.5 L 1086.5 922 L 455.5 922 L 455.5 921 L 470.5 921 L 471.5 920 L 489.5 919 L 516.5 914 L 537.5 908 Q 578.5 894 605 865.5 Q 622.5 846.5 633 820.5 L 641 795.5 L 646 767.5 L 647 740.5 L 648 739.5 L 648.5 450 L 693 599.5 L 695 609.5 L 701 626.5 L 703 636.5 L 706 643.5 L 708 653.5 L 711 660.5 L 713 670.5 L 719 687.5 L 721 697.5 L 724 704.5 L 726 714.5 L 732 731.5 L 734 741.5 L 737 748.5 L 739 758.5 L 743.5 769 L 840.5 769 L 843 766.5 L 944 426 Z " /><path fill="rgb(0,0,0)" stroke="rgb(0,0,0)" stroke-width="1" opacity="0" d="M 0.5 508 L 1.5 509 L 215 509 L 215 742.5 L 216 743.5 L 217 767.5 L 223 797.5 Q 228.6 817.9 238 834.5 Q 251.7 858.8 272.5 876 Q 299.7 898.8 338.5 910 L 375.5 918 L 389.5 919 L 390.5 920 L 400.5 920 L 401.5 921 L 418 921.5 L 0 922 L 0.5 508 Z " /><path fill="rgb(0,0,0)" stroke="rgb(0,0,0)" stroke-width="1" opacity="0.4470588235294118" d="M 351.5 1 L 352 101.5 L 350.5 103 L 141.5 103 L 141.5 102 L 351 102 L 351.5 1 Z " /><path fill="rgb(0,0,0)" stroke="rgb(0,0,0)" stroke-width="1" opacity="0.4470588235294118" d="M 946.5 426 L 947 768 L 1086 768.5 L 947.5 769 L 946 767.5 L 946.5 426 Z " /><path fill="rgb(0,0,0)" stroke="rgb(0,0,0)" stroke-width="1" opacity="0.4470588235294118" d="M 647.5 446 L 649 449.5 L 648 450.5 L 647.5 740 L 647.5 446 Z " /><path fill="rgb(0,0,0)" stroke="rgb(0,0,0)" stroke-width="1" opacity="0.4470588235294118" d="M 1.5 508 L 214.5 508 L 216 509.5 L 215.5 743 L 215 509 L 1.5 509 L 1.5 508 Z " /><path fill="rgb(0,0,0)" stroke="rgb(0,0,0)" stroke-width="1" opacity="0.4470588235294118" d="M 519.5 741 L 520 744.5 L 519 744.5 L 519.5 741 Z " /><path fill="rgb(0,0,0)" stroke="rgb(0,0,0)" stroke-width="1" opacity="0.4470588235294118" d="M 359.5 744 L 360 746.5 L 359 746.5 L 359.5 744 Z " /><path fill="rgb(0,0,0)" stroke="rgb(0,0,0)" stroke-width="1" opacity="0.4470588235294118" d="M 360.5 752 L 361 754.5 L 360 754.5 L 360.5 752 Z " /><path fill="rgb(0,0,0)" stroke="rgb(0,0,0)" stroke-width="1" opacity="0.4470588235294118" d="M 646.5 754 L 647 757.5 L 646 757.5 L 646.5 754 Z " /><path fill="rgb(0,0,0)" stroke="rgb(0,0,0)" stroke-width="1" opacity="0.4470588235294118" d="M 216.5 755 L 217 757.5 L 216 757.5 L 216.5 755 Z " /><path fill="rgb(0,0,0)" stroke="rgb(0,0,0)" stroke-width="1" opacity="0.4470588235294118" d="M 217.5 765 L 218 767.5 L 217 767.5 L 217.5 765 Z " /><path fill="rgb(0,0,0)" stroke="rgb(0,0,0)" stroke-width="1" opacity="0.4470588235294118" d="M 645.5 765 L 646 767.5 L 645 767.5 L 645.5 765 Z " /><path fill="rgb(0,0,0)" stroke="rgb(0,0,0)" stroke-width="1" opacity="0.4470588235294118" d="M 743.5 768 L 841 768.5 L 743.5 769 L 743.5 768 Z " /><path fill="rgb(0,0,0)" stroke="rgb(0,0,0)" stroke-width="1" opacity="0.4470588235294118" d="M 501.5 796 L 496.5 802 L 501.5 796 Z " /><path fill="rgb(0,0,0)" stroke="rgb(0,0,0)" stroke-width="1" opacity="0.4470588235294118" d="M 385.5 802 L 386.5 804 L 385.5 802 Z " /><path fill="rgb(0,0,0)" stroke="rgb(0,0,0)" stroke-width="1" opacity="0.4470588235294118" d="M 492.5 804 L 491.5 806 L 492.5 804 Z " /><path fill="rgb(0,0,0)" stroke="rgb(0,0,0)" stroke-width="1" opacity="0.4470588235294118" d="M 428.5 817 L 434 817.5 L 428.5 818 L 428.5 817 Z " /><path fill="rgb(0,0,0)" stroke="rgb(0,0,0)" stroke-width="1" opacity="0.4470588235294118" d="M 448.5 817 L 453 817.5 L 448.5 818 L 448.5 817 Z " /><path fill="rgb(0,0,0)" stroke="rgb(0,0,0)" stroke-width="1" opacity="0.4470588235294118" d="M 616.5 850 L 615.5 852 L 616.5 850 Z " /><path fill="rgb(0,0,0)" stroke="rgb(0,0,0)" stroke-width="1" opacity="0.4470588235294118" d="M 249.5 851 L 250.5 853 L 249.5 851 Z " /><path fill="rgb(0,0,0)" stroke="rgb(0,0,0)" stroke-width="1" opacity="0.4470588235294118" d="M 253.5 856 L 254.5 858 L 253.5 856 Z " /><path fill="rgb(0,0,0)" stroke="rgb(0,0,0)" stroke-width="1" opacity="0.4470588235294118" d="M 610.5 858 L 609.5 860 L 610.5 858 Z " /><path fill="rgb(0,0,0)" stroke="rgb(0,0,0)" stroke-width="1" opacity="0.4470588235294118" d="M 604.5 865 L 596.5 874 L 604.5 865 Z " /><path fill="rgb(0,0,0)" stroke="rgb(0,0,0)" stroke-width="1" opacity="0.4470588235294118" d="M 271.5 874 L 272.5 876 L 271.5 874 Z " /><path fill="rgb(0,0,0)" stroke="rgb(0,0,0)" stroke-width="1" opacity="0.4470588235294118" d="M 590.5 878 L 589.5 880 L 590.5 878 Z " /><path fill="rgb(0,0,0)" stroke="rgb(0,0,0)" stroke-width="1" opacity="0.4470588235294118" d="M 487.5 918 L 490 918.5 L 487.5 919 L 487.5 918 Z " /><path fill="rgb(0,0,0)" stroke="rgb(0,0,0)" stroke-width="1" opacity="0.4470588235294118" d="M 390.5 919 L 393 919.5 L 390.5 920 L 390.5 919 Z " /><path fill="rgb(0,0,0)" stroke="rgb(0,0,0)" stroke-width="1" opacity="0.4470588235294118" d="M 478.5 919 L 482 919.5 L 478.5 920 L 478.5 919 Z " /><path fill="rgb(0,0,0)" stroke="rgb(0,0,0)" stroke-width="1" opacity="0.4470588235294118" d="M 401.5 920 L 405 920.5 L 401.5 921 L 401.5 920 Z " /><path fill="rgb(0,0,0)" stroke="rgb(0,0,0)" stroke-width="1" opacity="0.4470588235294118" d="M 467.5 920 L 471 920.5 L 467.5 921 L 467.5 920 Z " /><path fill="rgb(0,0,0)" stroke="rgb(0,0,0)" stroke-width="1" opacity="0.4470588235294118" d="M 418.5 921 L 429 921.5 L 418.5 922 L 418.5 921 Z " /><path fill="rgb(0,0,0)" stroke="rgb(0,0,0)" stroke-width="1" opacity="0.4470588235294118" d="M 443.5 921 L 455 921.5 L 443.5 922 L 443.5 921 Z " /><path fill="rgb(0,0,0)" stroke="rgb(0,0,0)" stroke-width="1" opacity="0.6666666666666666" d="M 0.5 1 L 1 507.5 L 0 507.5 L 0.5 1 Z " /><path fill="rgb(0,0,0)" stroke="rgb(0,0,0)" stroke-width="1" opacity="0.6666666666666666" d="M 1086.5 260 L 1087 767.5 L 1086 767.5 L 1086.5 260 Z " /><path fill="rgb(0,0,0)" stroke="rgb(0,0,0)" stroke-width="1" opacity="0.6666666666666666" d="M 520.5 261 L 521 405.5 L 520 405.5 L 520.5 261 Z " /><path fill="rgb(0,0,0)" stroke="rgb(0,0,0)" stroke-width="1" opacity="0.6666666666666666" d="M 358.5 406 L 359 736.5 L 358 736.5 L 358.5 406 Z " /><path fill="rgb(0,0,0)" stroke="rgb(0,0,0)" stroke-width="1" opacity="0.6666666666666666" d="M 806.5 565 L 805.5 567 L 803 566.5 L 806.5 565 Z " /><path fill="rgb(0,0,0)" stroke="rgb(0,0,0)" stroke-width="1" opacity="0.6666666666666666" d="M 519.5 745 L 520 747.5 L 519 747.5 L 519.5 745 Z " /><path fill="rgb(0,0,0)" stroke="rgb(0,0,0)" stroke-width="1" opacity="0.6666666666666666" d="M 646.5 750 L 647 753.5 L 646 753.5 L 646.5 750 Z " /><path fill="rgb(0,0,0)" stroke="rgb(0,0,0)" stroke-width="1" opacity="0.6666666666666666" d="M 216.5 751 L 217 754.5 L 216 754.5 L 216.5 751 Z " /><path fill="rgb(0,0,0)" stroke="rgb(0,0,0)" stroke-width="1" opacity="0.6666666666666666" d="M 377.5 795 L 382.5 801 L 377.5 795 Z " /><path fill="rgb(0,0,0)" stroke="rgb(0,0,0)" stroke-width="1" opacity="0.6666666666666666" d="M 495.5 802 L 494.5 804 L 495.5 802 Z " /><path fill="rgb(0,0,0)" stroke="rgb(0,0,0)" stroke-width="1" opacity="0.6666666666666666" d="M 453.5 817 L 456 817.5 L 453.5 818 L 453.5 817 Z " /><path fill="rgb(0,0,0)" stroke="rgb(0,0,0)" stroke-width="1" opacity="0.6666666666666666" d="M 255.5 858 L 256.5 860 L 255.5 858 Z " /><path fill="rgb(0,0,0)" stroke="rgb(0,0,0)" stroke-width="1" opacity="0.6666666666666666" d="M 608.5 860 L 607.5 862 L 608.5 860 Z " /><path fill="rgb(0,0,0)" stroke="rgb(0,0,0)" stroke-width="1" opacity="0.6666666666666666" d="M 269.5 872 L 270.5 874 L 269.5 872 Z " /><path fill="rgb(0,0,0)" stroke="rgb(0,0,0)" stroke-width="1" opacity="0.6666666666666666" d="M 592.5 876 L 591.5 878 L 592.5 876 Z " /><path fill="rgb(0,0,0)" stroke="rgb(0,0,0)" stroke-width="1" opacity="0.6666666666666666" d="M 275.5 877 L 276.5 879 L 275.5 877 Z " /><path fill="rgb(0,0,0)" stroke="rgb(0,0,0)" stroke-width="1" opacity="0.6666666666666666" d="M 393.5 919 L 396 919.5 L 393.5 920 L 393.5 919 Z " /><path fill="rgb(0,0,0)" stroke="rgb(0,0,0)" stroke-width="1" opacity="0.6666666666666666" d="M 405.5 920 L 409 920.5 L 405.5 921 L 405.5 920 Z " /><path fill="rgb(0,0,0)" stroke="rgb(0,0,0)" stroke-width="1" opacity="0.6666666666666666" d="M 463.5 920 L 467 920.5 L 463.5 921 L 463.5 920 Z " /><path fill="rgb(0,0,0)" stroke="rgb(0,0,0)" stroke-width="1" opacity="0.6666666666666666" d="M 429.5 921 L 443 921.5 L 429.5 922 L 429.5 921 Z " /><path fill="rgb(0,0,0)" stroke="rgb(0,0,0)" stroke-width="1" opacity="0.8980392156862745" d="M 1.5 0 L 351 0.5 L 1.5 1 L 1.5 0 Z " /><path fill="rgb(0,0,0)" stroke="rgb(0,0,0)" stroke-width="1" opacity="0.8980392156862745" d="M 521.5 260 L 711 260.5 L 521.5 261 L 521.5 260 Z " /><path fill="rgb(0,0,0)" stroke="rgb(0,0,0)" stroke-width="1" opacity="0.8980392156862745" d="M 899.5 260 L 1086 260.5 L 899.5 261 L 899.5 260 Z " /><path fill="rgb(0,0,0)" stroke="rgb(0,0,0)" stroke-width="1" opacity="0.8980392156862745" d="M 141.5 298 L 305 298.5 L 141.5 299 L 141.5 298 Z " /><path fill="rgb(0,0,0)" stroke="rgb(0,0,0)" stroke-width="1" opacity="0.8980392156862745" d="M 141.5 406 L 216 406.5 L 141.5 407 L 141.5 406 Z " /><path fill="rgb(0,0,0)" stroke="rgb(0,0,0)" stroke-width="1" opacity="0.8980392156862745" d="M 520.5 406 L 521 732.5 L 520 732.5 L 520.5 406 Z " /><path fill="rgb(0,0,0)" stroke="rgb(0,0,0)" stroke-width="1" opacity="0.8980392156862745" d="M 944.5 425 L 947 425.5 L 944.5 426 L 944.5 425 Z " /><path fill="rgb(0,0,0)" stroke="rgb(0,0,0)" stroke-width="1" opacity="0.8980392156862745" d="M 358.5 737 L 359 739.5 L 358 739.5 L 358.5 737 Z " /><path fill="rgb(0,0,0)" stroke="rgb(0,0,0)" stroke-width="1" opacity="0.8980392156862745" d="M 646.5 747 L 647 749.5 L 646 749.5 L 646.5 747 Z " /><path fill="rgb(0,0,0)" stroke="rgb(0,0,0)" stroke-width="1" opacity="0.8980392156862745" d="M 504.5 793 L 503.5 795 L 504.5 793 Z " /><path fill="rgb(0,0,0)" stroke="rgb(0,0,0)" stroke-width="1" opacity="0.8980392156862745" d="M 383.5 801 L 384.5 803 L 383.5 801 Z " /><path fill="rgb(0,0,0)" stroke="rgb(0,0,0)" stroke-width="1" opacity="0.8980392156862745" d="M 252.5 854 L 253.5 856 L 252.5 854 Z " /><path fill="rgb(0,0,0)" stroke="rgb(0,0,0)" stroke-width="1" opacity="0.8980392156862745" d="M 611.5 856 L 610.5 858 L 611.5 856 Z " /><path fill="rgb(0,0,0)" stroke="rgb(0,0,0)" stroke-width="1" opacity="0.8980392156862745" d="M 257.5 860 L 268.5 872 L 257.5 860 Z " /><path fill="rgb(0,0,0)" stroke="rgb(0,0,0)" stroke-width="1" opacity="0.8980392156862745" d="M 606.5 862 L 604.5 865 L 606.5 862 Z " /><path fill="rgb(0,0,0)" stroke="rgb(0,0,0)" stroke-width="1" opacity="0.8980392156862745" d="M 594.5 874 L 593.5 876 L 594.5 874 Z " /><path fill="rgb(0,0,0)" stroke="rgb(0,0,0)" stroke-width="1" opacity="0.8980392156862745" d="M 409.5 920 L 412 920.5 L 409.5 921 L 409.5 920 Z " /><path fill="rgb(0,0,0)" stroke="rgb(0,0,0)" stroke-width="1" opacity="0.8980392156862745" d="M 460.5 920 L 463 920.5 L 460.5 921 L 460.5 920 Z " /><path fill="rgb(0,0,0)" stroke="rgb(0,0,0)" stroke-width="1" opacity="1" d="M 1 1 L 350.5 1 L 351 1.5 L 351 102 L 141 102 L 141 199 L 305 199 L 305 298 L 141 298 L 141 407 L 215.5 407 L 216.5 406 L 358 406 L 358 739.5 L 359 740.5 L 359 749.5 L 360 750.5 L 361 761.5 L 366 777.5 Q 372.4 793.1 384.5 803 Q 395.8 812.2 412.5 816 L 423.5 817 L 424.5 818 L 456.5 818 L 472.5 815 L 487.5 809 L 505 793.5 L 511 783.5 L 517 766.5 L 519 756.5 L 519 749.5 L 520 748.5 L 520 733.5 L 521 732.5 L 521 261 L 710.5 261 L 711 263.5 L 718 283.5 L 802 565.5 L 803.5 567 Q 808.8 568.8 807 563.5 L 839 460.5 L 860 387.5 L 864 377.5 L 885 304.5 L 889 294.5 L 898 261 L 1086 261 L 1086 768 L 947 768 L 947 425.5 L 944.5 425 L 940 435.5 L 901 569.5 L 872 663.5 L 870 673.5 L 858 710.5 L 856 720.5 L 844 760.5 L 840.5 768 L 743.5 768 L 743 766.5 L 647.5 444 L 647 746.5 L 646 747.5 L 645 769.5 L 640 796.5 L 631 823.5 Q 617.9 853.4 595.5 874 L 567.5 894 L 543.5 905 L 521.5 912 L 503.5 916 L 484.5 918 L 483.5 919 L 474.5 919 L 473.5 920 L 460.5 920 L 459.5 921 L 412.5 921 L 411.5 920 L 397.5 920 L 396.5 919 L 380.5 918 L 357.5 914 L 334.5 908 L 315.5 901 Q 278 885.5 254 856.5 Q 238.5 838 229 813.5 L 221 786.5 L 218 769.5 L 218 761.5 L 217 760.5 L 217 749.5 L 216 748.5 L 216 508 L 1 508 L 1 1 Z " /></svg>