<svg width="1093" height="1079" version="1.1" xmlns="http://www.w3.org/2000/svg" desc="Created with imagetracer.js version 1.2.6" ><path fill="rgb(0,0,0)" stroke="rgb(0,0,0)" stroke-width="1" opacity="0" d="M 0 0 L 797 0.5 L 768.5 4 Q 746.7 8.7 728.5 17 Q 689.1 34.6 662 64.5 Q 636.2 92.2 622 131.5 L 616 152.5 L 612 175.5 L 611 215.5 L 612 216.5 L 612 226.5 L 613 227.5 L 613 234.5 L 616 250.5 L 628 287.5 Q 645.9 327.6 676.5 355 Q 704.4 380.6 743.5 395 L 768.5 402 L 785.5 405 L 793.5 405 L 794.5 406 L 829.5 406 L 830.5 405 L 839.5 405 L 840.5 404 L 857.5 402 L 873.5 398 L 895.5 390 Q 933.1 373.6 959 345.5 Q 984.8 318.3 999 279.5 Q 1005.5 261.5 1009 240.5 L 1010 226.5 L 1011 225.5 L 1012 193.5 L 1011 192.5 L 1011 178.5 L 1010 177.5 L 1008 158.5 L 1003 138.5 L 996 119.5 Q 979.8 82.2 952.5 56 Q 928 32 894.5 17 Q 876.3 8.7 854.5 4 L 827 0.5 L 1093 0 L 1093 459 L 453.5 459 L 453 459.5 L 453 562.5 L 454 563.5 L 454 1079 L 0 1079 L 0 792.5 L 1 792.5 L 1 802.5 L 2 803.5 L 2 810.5 L 5 826.5 L 17 863.5 Q 34.9 903.6 65.5 931 Q 93.4 956.6 132.5 971 L 157.5 978 L 174.5 981 L 182.5 981 L 183.5 982 L 218.5 982 L 219.5 981 L 228.5 981 L 229.5 980 L 246.5 978 L 262.5 974 L 284.5 966 Q 322.1 949.6 348 921.5 Q 373.8 894.3 388 855.5 Q 394.5 837.5 398 816.5 L 399 802.5 L 400 801.5 L 401 769.5 L 400 768.5 L 400 754.5 L 399 753.5 L 397 734.5 L 392 714.5 L 385 695.5 Q 368.8 658.2 341.5 632 Q 311.7 602.8 268.5 587 L 243.5 580 L 226.5 578 L 225.5 577 L 216.5 577 L 215.5 576 L 186.5 576 L 185.5 577 L 175.5 577 L 174.5 578 L 157.5 580 Q 135.7 584.7 117.5 593 Q 78.1 610.6 51 640.5 Q 28 665.5 14 699.5 L 5 728.5 L 1 751.5 L 0.5 763 L 0 0 Z " /><path fill="rgb(0,0,0)" stroke="rgb(0,0,0)" stroke-width="1" opacity="0" d="M 806.5 102 L 817.5 102 L 818.5 103 L 833.5 104 L 853.5 110 Q 875.2 119.3 889 136.5 Q 899.3 149.2 905 166.5 L 909 184.5 L 910 208.5 L 909 209.5 L 909 218.5 L 907 229.5 L 902 245.5 Q 892.8 267.8 875.5 282 Q 862.2 293.2 843.5 299 L 822.5 303 L 801.5 303 L 800.5 302 L 788.5 301 L 772.5 296 Q 754 288 741 274.5 Q 727.2 260.3 720 239.5 L 715 217.5 L 714 195.5 L 715 194.5 L 715 185.5 L 717 174.5 L 722 159.5 Q 729.8 140.8 743.5 128 Q 756.2 116.2 773.5 109 L 790.5 104 L 805.5 103 L 806.5 102 Z " /><path fill="rgb(0,0,0)" stroke="rgb(0,0,0)" stroke-width="1" opacity="0" d="M 557 562 L 1093 562 L 1093 1079 L 557 1079 L 557 562 Z M 600 608 L 600 949 L 1002 949 L 1003 948 L 1003 608 L 600 608 Z " /><path fill="rgb(0,0,0)" stroke="rgb(0,0,0)" stroke-width="1" opacity="0" d="M 195.5 678 L 206.5 678 L 207.5 679 L 222.5 680 L 242.5 686 Q 264.2 695.3 278 712.5 Q 288.3 725.2 294 742.5 L 298 760.5 L 299 784.5 L 298 785.5 L 298 794.5 L 296 805.5 L 291 821.5 Q 281.8 843.8 264.5 858 Q 251.2 869.2 232.5 875 L 211.5 879 L 190.5 879 L 189.5 878 L 177.5 877 L 161.5 872 Q 143 864 130 850.5 Q 116.2 836.3 109 815.5 L 104 793.5 L 103 771.5 L 104 770.5 L 104 761.5 L 106 750.5 L 111 735.5 Q 118.8 716.8 132.5 704 Q 145.2 692.2 162.5 685 L 179.5 680 L 194.5 679 L 195.5 678 Z " /><path fill="rgb(0,0,0)" stroke="rgb(0,0,0)" stroke-width="1" opacity="0" d="M 709 705 L 892 705 L 892 851 L 709 851 L 709 705 Z " /><path fill="rgb(0,0,0)" stroke="rgb(0,0,0)" stroke-width="1" opacity="0.7568627450980392" d="M 797.5 0 L 809 0.5 L 797.5 1 L 797.5 0 Z " /><path fill="rgb(0,0,0)" stroke="rgb(0,0,0)" stroke-width="1" opacity="0.7568627450980392" d="M 815.5 0 L 827 0.5 L 815.5 1 L 815.5 0 Z " /><path fill="rgb(0,0,0)" stroke="rgb(0,0,0)" stroke-width="1" opacity="0.7568627450980392" d="M 786.5 1 L 791 1.5 L 786.5 2 L 786.5 1 Z " /><path fill="rgb(0,0,0)" stroke="rgb(0,0,0)" stroke-width="1" opacity="0.7568627450980392" d="M 832.5 1 L 837 1.5 L 832.5 2 L 832.5 1 Z " /><path fill="rgb(0,0,0)" stroke="rgb(0,0,0)" stroke-width="1" opacity="0.7568627450980392" d="M 779.5 2 L 782 2.5 L 779.5 3 L 779.5 2 Z " /><path fill="rgb(0,0,0)" stroke="rgb(0,0,0)" stroke-width="1" opacity="0.7568627450980392" d="M 841.5 2 L 844 2.5 L 841.5 3 L 841.5 2 Z " /><path fill="rgb(0,0,0)" stroke="rgb(0,0,0)" stroke-width="1" opacity="0.7568627450980392" d="M 773.5 3 L 776 3.5 L 773.5 4 L 773.5 3 Z " /><path fill="rgb(0,0,0)" stroke="rgb(0,0,0)" stroke-width="1" opacity="0.7568627450980392" d="M 847.5 3 L 850 3.5 L 847.5 4 L 847.5 3 Z " /><path fill="rgb(0,0,0)" stroke="rgb(0,0,0)" stroke-width="1" opacity="0.7568627450980392" d="M 768.5 4 L 771 4.5 L 768.5 5 L 768.5 4 Z " /><path fill="rgb(0,0,0)" stroke="rgb(0,0,0)" stroke-width="1" opacity="0.7568627450980392" d="M 852.5 4 L 855 4.5 L 852.5 5 L 852.5 4 Z " /><path fill="rgb(0,0,0)" stroke="rgb(0,0,0)" stroke-width="1" opacity="0.7568627450980392" d="M 710.5 26 L 709.5 28 L 710.5 26 Z " /><path fill="rgb(0,0,0)" stroke="rgb(0,0,0)" stroke-width="1" opacity="0.7568627450980392" d="M 912.5 26 L 913.5 28 L 912.5 26 Z " /><path fill="rgb(0,0,0)" stroke="rgb(0,0,0)" stroke-width="1" opacity="0.7568627450980392" d="M 917.5 29 L 918.5 31 L 917.5 29 Z " /><path fill="rgb(0,0,0)" stroke="rgb(0,0,0)" stroke-width="1" opacity="0.7568627450980392" d="M 700.5 32 L 699.5 34 L 700.5 32 Z " /><path fill="rgb(0,0,0)" stroke="rgb(0,0,0)" stroke-width="1" opacity="0.7568627450980392" d="M 697.5 34 L 696.5 36 L 697.5 34 Z " /><path fill="rgb(0,0,0)" stroke="rgb(0,0,0)" stroke-width="1" opacity="0.7568627450980392" d="M 694.5 36 L 693.5 38 L 694.5 36 Z " /><path fill="rgb(0,0,0)" stroke="rgb(0,0,0)" stroke-width="1" opacity="0.7568627450980392" d="M 929.5 37 L 930.5 39 L 929.5 37 Z " /><path fill="rgb(0,0,0)" stroke="rgb(0,0,0)" stroke-width="1" opacity="0.7568627450980392" d="M 690.5 39 L 689.5 41 L 690.5 39 Z " /><path fill="rgb(0,0,0)" stroke="rgb(0,0,0)" stroke-width="1" opacity="0.7568627450980392" d="M 932.5 39 L 934.5 42 L 932.5 39 Z " /><path fill="rgb(0,0,0)" stroke="rgb(0,0,0)" stroke-width="1" opacity="0.7568627450980392" d="M 686.5 42 L 684.5 45 L 686.5 42 Z " /><path fill="rgb(0,0,0)" stroke="rgb(0,0,0)" stroke-width="1" opacity="0.7568627450980392" d="M 937.5 43 L 938.5 45 L 937.5 43 Z " /><path fill="rgb(0,0,0)" stroke="rgb(0,0,0)" stroke-width="1" opacity="0.7568627450980392" d="M 681.5 46 L 678.5 50 L 681.5 46 Z " /><path fill="rgb(0,0,0)" stroke="rgb(0,0,0)" stroke-width="1" opacity="0.7568627450980392" d="M 942.5 47 L 945.5 51 L 942.5 47 Z " /><path fill="rgb(0,0,0)" stroke="rgb(0,0,0)" stroke-width="1" opacity="0.7568627450980392" d="M 674.5 52 L 662.5 65 L 674.5 52 Z " /><path fill="rgb(0,0,0)" stroke="rgb(0,0,0)" stroke-width="1" opacity="0.7568627450980392" d="M 952.5 56 L 956.5 61 L 952.5 56 Z " /><path fill="rgb(0,0,0)" stroke="rgb(0,0,0)" stroke-width="1" opacity="0.7568627450980392" d="M 961.5 66 L 965.5 71 L 961.5 66 Z " /><path fill="rgb(0,0,0)" stroke="rgb(0,0,0)" stroke-width="1" opacity="0.7568627450980392" d="M 658.5 69 L 656.5 72 L 658.5 69 Z " /><path fill="rgb(0,0,0)" stroke="rgb(0,0,0)" stroke-width="1" opacity="0.7568627450980392" d="M 967.5 73 L 969.5 76 L 967.5 73 Z " /><path fill="rgb(0,0,0)" stroke="rgb(0,0,0)" stroke-width="1" opacity="0.7568627450980392" d="M 653.5 75 L 652.5 77 L 653.5 75 Z " /><path fill="rgb(0,0,0)" stroke="rgb(0,0,0)" stroke-width="1" opacity="0.7568627450980392" d="M 971.5 78 L 972.5 80 L 971.5 78 Z " /><path fill="rgb(0,0,0)" stroke="rgb(0,0,0)" stroke-width="1" opacity="0.7568627450980392" d="M 650.5 79 L 649.5 81 L 650.5 79 Z " /><path fill="rgb(0,0,0)" stroke="rgb(0,0,0)" stroke-width="1" opacity="0.7568627450980392" d="M 974.5 82 L 975.5 84 L 974.5 82 Z " /><path fill="rgb(0,0,0)" stroke="rgb(0,0,0)" stroke-width="1" opacity="0.7568627450980392" d="M 647.5 83 L 646.5 85 L 647.5 83 Z " /><path fill="rgb(0,0,0)" stroke="rgb(0,0,0)" stroke-width="1" opacity="0.7568627450980392" d="M 976.5 85 L 977.5 87 L 976.5 85 Z " /><path fill="rgb(0,0,0)" stroke="rgb(0,0,0)" stroke-width="1" opacity="0.7568627450980392" d="M 645.5 86 L 644.5 88 L 645.5 86 Z " /><path fill="rgb(0,0,0)" stroke="rgb(0,0,0)" stroke-width="1" opacity="0.7568627450980392" d="M 978.5 88 L 979.5 90 L 978.5 88 Z " /><path fill="rgb(0,0,0)" stroke="rgb(0,0,0)" stroke-width="1" opacity="0.7568627450980392" d="M 643.5 89 L 642.5 91 L 643.5 89 Z " /><path fill="rgb(0,0,0)" stroke="rgb(0,0,0)" stroke-width="1" opacity="0.7568627450980392" d="M 980.5 91 L 981.5 93 L 980.5 91 Z " /><path fill="rgb(0,0,0)" stroke="rgb(0,0,0)" stroke-width="1" opacity="0.7568627450980392" d="M 983.5 96 L 984.5 98 L 983.5 96 Z " /><path fill="rgb(0,0,0)" stroke="rgb(0,0,0)" stroke-width="1" opacity="0.7568627450980392" d="M 637.5 99 L 636.5 101 L 637.5 99 Z " /><path fill="rgb(0,0,0)" stroke="rgb(0,0,0)" stroke-width="1" opacity="0.7568627450980392" d="M 800.5 102 L 806 102.5 L 800.5 103 L 800.5 102 Z " /><path fill="rgb(0,0,0)" stroke="rgb(0,0,0)" stroke-width="1" opacity="0.7568627450980392" d="M 818.5 102 L 824 102.5 L 818.5 103 L 818.5 102 Z " /><path fill="rgb(0,0,0)" stroke="rgb(0,0,0)" stroke-width="1" opacity="0.7568627450980392" d="M 793.5 103 L 796 103.5 L 793.5 104 L 793.5 103 Z " /><path fill="rgb(0,0,0)" stroke="rgb(0,0,0)" stroke-width="1" opacity="0.7568627450980392" d="M 828.5 103 L 831 103.5 L 828.5 104 L 828.5 103 Z " /><path fill="rgb(0,0,0)" stroke="rgb(0,0,0)" stroke-width="1" opacity="0.7568627450980392" d="M 987.5 103 L 988.5 105 L 987.5 103 Z " /><path fill="rgb(0,0,0)" stroke="rgb(0,0,0)" stroke-width="1" opacity="0.7568627450980392" d="M 834.5 104 L 837 104.5 L 834.5 105 L 834.5 104 Z " /><path fill="rgb(0,0,0)" stroke="rgb(0,0,0)" stroke-width="1" opacity="0.7568627450980392" d="M 765.5 112 L 767 112.5 L 764.5 114 L 765.5 112 Z " /><path fill="rgb(0,0,0)" stroke="rgb(0,0,0)" stroke-width="1" opacity="0.7568627450980392" d="M 758.5 116 L 757.5 118 L 758.5 116 Z " /><path fill="rgb(0,0,0)" stroke="rgb(0,0,0)" stroke-width="1" opacity="0.7568627450980392" d="M 866.5 116 L 867.5 118 L 866.5 116 Z " /><path fill="rgb(0,0,0)" stroke="rgb(0,0,0)" stroke-width="1" opacity="0.7568627450980392" d="M 755.5 118 L 754.5 120 L 755.5 118 Z " /><path fill="rgb(0,0,0)" stroke="rgb(0,0,0)" stroke-width="1" opacity="0.7568627450980392" d="M 869.5 118 L 870.5 120 L 869.5 118 Z " /><path fill="rgb(0,0,0)" stroke="rgb(0,0,0)" stroke-width="1" opacity="0.7568627450980392" d="M 752.5 120 L 751.5 122 L 752.5 120 Z " /><path fill="rgb(0,0,0)" stroke="rgb(0,0,0)" stroke-width="1" opacity="0.7568627450980392" d="M 872.5 120 L 874.5 123 L 872.5 120 Z " /><path fill="rgb(0,0,0)" stroke="rgb(0,0,0)" stroke-width="1" opacity="0.7568627450980392" d="M 748.5 123 L 744.5 128 L 748.5 123 Z " /><path fill="rgb(0,0,0)" stroke="rgb(0,0,0)" stroke-width="1" opacity="0.7568627450980392" d="M 877.5 124 L 887.5 135 L 877.5 124 Z " /><path fill="rgb(0,0,0)" stroke="rgb(0,0,0)" stroke-width="1" opacity="0.7568627450980392" d="M 739.5 132 L 735.5 137 L 739.5 132 Z " /><path fill="rgb(0,0,0)" stroke="rgb(0,0,0)" stroke-width="1" opacity="0.7568627450980392" d="M 889.5 137 L 891.5 140 L 889.5 137 Z " /><path fill="rgb(0,0,0)" stroke="rgb(0,0,0)" stroke-width="1" opacity="0.7568627450980392" d="M 733.5 139 L 732.5 141 L 733.5 139 Z " /><path fill="rgb(0,0,0)" stroke="rgb(0,0,0)" stroke-width="1" opacity="0.7568627450980392" d="M 892.5 141 L 893.5 143 L 892.5 141 Z " /><path fill="rgb(0,0,0)" stroke="rgb(0,0,0)" stroke-width="1" opacity="0.7568627450980392" d="M 731.5 142 L 730.5 144 L 731.5 142 Z " /><path fill="rgb(0,0,0)" stroke="rgb(0,0,0)" stroke-width="1" opacity="0.7568627450980392" d="M 894.5 144 L 895.5 146 L 894.5 144 Z " /><path fill="rgb(0,0,0)" stroke="rgb(0,0,0)" stroke-width="1" opacity="0.7568627450980392" d="M 729.5 145 L 728.5 147 L 729.5 145 Z " /><path fill="rgb(0,0,0)" stroke="rgb(0,0,0)" stroke-width="1" opacity="0.7568627450980392" d="M 1007.5 158 L 1008 160.5 L 1007 160.5 L 1007.5 158 Z " /><path fill="rgb(0,0,0)" stroke="rgb(0,0,0)" stroke-width="1" opacity="0.7568627450980392" d="M 614.5 162 L 615 164.5 L 614 164.5 L 614.5 162 Z " /><path fill="rgb(0,0,0)" stroke="rgb(0,0,0)" stroke-width="1" opacity="0.7568627450980392" d="M 1008.5 164 L 1009 166.5 L 1008 166.5 L 1008.5 164 Z " /><path fill="rgb(0,0,0)" stroke="rgb(0,0,0)" stroke-width="1" opacity="0.7568627450980392" d="M 613.5 168 L 614 170.5 L 613 170.5 L 613.5 168 Z " /><path fill="rgb(0,0,0)" stroke="rgb(0,0,0)" stroke-width="1" opacity="0.7568627450980392" d="M 1009.5 170 L 1010 173.5 L 1009 173.5 L 1009.5 170 Z " /><path fill="rgb(0,0,0)" stroke="rgb(0,0,0)" stroke-width="1" opacity="0.7568627450980392" d="M 612.5 175 L 613 179.5 L 612 179.5 L 612.5 175 Z " /><path fill="rgb(0,0,0)" stroke="rgb(0,0,0)" stroke-width="1" opacity="0.7568627450980392" d="M 716.5 176 L 717 178.5 L 716 178.5 L 716.5 176 Z " /><path fill="rgb(0,0,0)" stroke="rgb(0,0,0)" stroke-width="1" opacity="0.7568627450980392" d="M 1010.5 178 L 1011 183.5 L 1010 183.5 L 1010.5 178 Z " /><path fill="rgb(0,0,0)" stroke="rgb(0,0,0)" stroke-width="1" opacity="0.7568627450980392" d="M 908.5 181 L 909 183.5 L 908 183.5 L 908.5 181 Z " /><path fill="rgb(0,0,0)" stroke="rgb(0,0,0)" stroke-width="1" opacity="0.7568627450980392" d="M 715.5 182 L 716 184.5 L 715 184.5 L 715.5 182 Z " /><path fill="rgb(0,0,0)" stroke="rgb(0,0,0)" stroke-width="1" opacity="0.7568627450980392" d="M 611.5 187 L 612 215.5 L 611 215.5 L 611.5 187 Z " /><path fill="rgb(0,0,0)" stroke="rgb(0,0,0)" stroke-width="1" opacity="0.7568627450980392" d="M 909.5 188 L 910 193.5 L 909 193.5 L 909.5 188 Z " /><path fill="rgb(0,0,0)" stroke="rgb(0,0,0)" stroke-width="1" opacity="0.7568627450980392" d="M 714.5 189 L 715 194.5 L 714 194.5 L 714.5 189 Z " /><path fill="rgb(0,0,0)" stroke="rgb(0,0,0)" stroke-width="1" opacity="0.7568627450980392" d="M 1011.5 193 L 1012 209.5 L 1011 209.5 L 1011.5 193 Z " /><path fill="rgb(0,0,0)" stroke="rgb(0,0,0)" stroke-width="1" opacity="0.7568627450980392" d="M 714.5 207 L 715 213.5 L 714 213.5 L 714.5 207 Z " /><path fill="rgb(0,0,0)" stroke="rgb(0,0,0)" stroke-width="1" opacity="0.7568627450980392" d="M 909.5 209 L 910 214.5 L 909 214.5 L 909.5 209 Z " /><path fill="rgb(0,0,0)" stroke="rgb(0,0,0)" stroke-width="1" opacity="0.7568627450980392" d="M 715.5 218 L 716 221.5 L 715 221.5 L 715.5 218 Z " /><path fill="rgb(0,0,0)" stroke="rgb(0,0,0)" stroke-width="1" opacity="0.7568627450980392" d="M 908.5 219 L 909 221.5 L 908 221.5 L 908.5 219 Z " /><path fill="rgb(0,0,0)" stroke="rgb(0,0,0)" stroke-width="1" opacity="0.7568627450980392" d="M 1010.5 220 L 1011 225.5 L 1010 225.5 L 1010.5 220 Z " /><path fill="rgb(0,0,0)" stroke="rgb(0,0,0)" stroke-width="1" opacity="0.7568627450980392" d="M 612.5 222 L 613 226.5 L 612 226.5 L 612.5 222 Z " /><path fill="rgb(0,0,0)" stroke="rgb(0,0,0)" stroke-width="1" opacity="0.7568627450980392" d="M 716.5 224 L 717 226.5 L 716 226.5 L 716.5 224 Z " /><path fill="rgb(0,0,0)" stroke="rgb(0,0,0)" stroke-width="1" opacity="0.7568627450980392" d="M 907.5 225 L 908 227.5 L 907 227.5 L 907.5 225 Z " /><path fill="rgb(0,0,0)" stroke="rgb(0,0,0)" stroke-width="1" opacity="0.7568627450980392" d="M 1009.5 230 L 1010 233.5 L 1009 233.5 L 1009.5 230 Z " /><path fill="rgb(0,0,0)" stroke="rgb(0,0,0)" stroke-width="1" opacity="0.7568627450980392" d="M 613.5 231 L 614 234.5 L 613 234.5 L 613.5 231 Z " /><path fill="rgb(0,0,0)" stroke="rgb(0,0,0)" stroke-width="1" opacity="0.7568627450980392" d="M 614.5 238 L 615 240.5 L 614 240.5 L 614.5 238 Z " /><path fill="rgb(0,0,0)" stroke="rgb(0,0,0)" stroke-width="1" opacity="0.7568627450980392" d="M 1008.5 238 L 1009 240.5 L 1008 240.5 L 1008.5 238 Z " /><path fill="rgb(0,0,0)" stroke="rgb(0,0,0)" stroke-width="1" opacity="0.7568627450980392" d="M 1007.5 244 L 1008 246.5 L 1007 246.5 L 1007.5 244 Z " /><path fill="rgb(0,0,0)" stroke="rgb(0,0,0)" stroke-width="1" opacity="0.7568627450980392" d="M 1006.5 249 L 1007 251.5 L 1006 251.5 L 1006.5 249 Z " /><path fill="rgb(0,0,0)" stroke="rgb(0,0,0)" stroke-width="1" opacity="0.7568627450980392" d="M 726.5 254 L 727.5 256 L 726.5 254 Z " /><path fill="rgb(0,0,0)" stroke="rgb(0,0,0)" stroke-width="1" opacity="0.7568627450980392" d="M 733.5 265 L 734.5 267 L 733.5 265 Z " /><path fill="rgb(0,0,0)" stroke="rgb(0,0,0)" stroke-width="1" opacity="0.7568627450980392" d="M 889.5 267 L 887.5 270 L 889.5 267 Z " /><path fill="rgb(0,0,0)" stroke="rgb(0,0,0)" stroke-width="1" opacity="0.7568627450980392" d="M 736.5 269 L 740.5 274 L 736.5 269 Z " /><path fill="rgb(0,0,0)" stroke="rgb(0,0,0)" stroke-width="1" opacity="0.7568627450980392" d="M 885.5 272 L 878.5 280 L 885.5 272 Z " /><path fill="rgb(0,0,0)" stroke="rgb(0,0,0)" stroke-width="1" opacity="0.7568627450980392" d="M 745.5 278 L 749.5 283 L 745.5 278 Z " /><path fill="rgb(0,0,0)" stroke="rgb(0,0,0)" stroke-width="1" opacity="0.7568627450980392" d="M 874.5 282 L 873.5 284 L 874.5 282 Z " /><path fill="rgb(0,0,0)" stroke="rgb(0,0,0)" stroke-width="1" opacity="0.7568627450980392" d="M 751.5 283 L 753.5 286 L 751.5 283 Z " /><path fill="rgb(0,0,0)" stroke="rgb(0,0,0)" stroke-width="1" opacity="0.7568627450980392" d="M 870.5 285 L 869.5 287 L 870.5 285 Z " /><path fill="rgb(0,0,0)" stroke="rgb(0,0,0)" stroke-width="1" opacity="0.7568627450980392" d="M 755.5 286 L 756.5 288 L 755.5 286 Z " /><path fill="rgb(0,0,0)" stroke="rgb(0,0,0)" stroke-width="1" opacity="0.7568627450980392" d="M 867.5 287 L 866.5 289 L 867.5 287 Z " /><path fill="rgb(0,0,0)" stroke="rgb(0,0,0)" stroke-width="1" opacity="0.7568627450980392" d="M 758.5 288 L 759.5 290 L 758.5 288 Z " /><path fill="rgb(0,0,0)" stroke="rgb(0,0,0)" stroke-width="1" opacity="0.7568627450980392" d="M 862.5 290 L 861.5 292 L 862.5 290 Z " /><path fill="rgb(0,0,0)" stroke="rgb(0,0,0)" stroke-width="1" opacity="0.7568627450980392" d="M 796.5 302 L 801 302.5 L 796.5 303 L 796.5 302 Z " /><path fill="rgb(0,0,0)" stroke="rgb(0,0,0)" stroke-width="1" opacity="0.7568627450980392" d="M 823.5 302 L 828 302.5 L 823.5 303 L 823.5 302 Z " /><path fill="rgb(0,0,0)" stroke="rgb(0,0,0)" stroke-width="1" opacity="0.7568627450980392" d="M 807.5 303 L 816 303.5 L 807.5 304 L 807.5 303 Z " /><path fill="rgb(0,0,0)" stroke="rgb(0,0,0)" stroke-width="1" opacity="0.7568627450980392" d="M 986.5 306 L 985.5 308 L 986.5 306 Z " /><path fill="rgb(0,0,0)" stroke="rgb(0,0,0)" stroke-width="1" opacity="0.7568627450980392" d="M 982.5 313 L 981.5 315 L 982.5 313 Z " /><path fill="rgb(0,0,0)" stroke="rgb(0,0,0)" stroke-width="1" opacity="0.7568627450980392" d="M 643.5 315 L 644.5 317 L 643.5 315 Z " /><path fill="rgb(0,0,0)" stroke="rgb(0,0,0)" stroke-width="1" opacity="0.7568627450980392" d="M 645.5 318 L 646.5 320 L 645.5 318 Z " /><path fill="rgb(0,0,0)" stroke="rgb(0,0,0)" stroke-width="1" opacity="0.7568627450980392" d="M 647.5 321 L 648.5 323 L 647.5 321 Z " /><path fill="rgb(0,0,0)" stroke="rgb(0,0,0)" stroke-width="1" opacity="0.7568627450980392" d="M 977.5 321 L 976.5 323 L 977.5 321 Z " /><path fill="rgb(0,0,0)" stroke="rgb(0,0,0)" stroke-width="1" opacity="0.7568627450980392" d="M 650.5 325 L 651.5 327 L 650.5 325 Z " /><path fill="rgb(0,0,0)" stroke="rgb(0,0,0)" stroke-width="1" opacity="0.7568627450980392" d="M 972.5 328 L 971.5 330 L 972.5 328 Z " /><path fill="rgb(0,0,0)" stroke="rgb(0,0,0)" stroke-width="1" opacity="0.7568627450980392" d="M 653.5 329 L 654.5 331 L 653.5 329 Z " /><path fill="rgb(0,0,0)" stroke="rgb(0,0,0)" stroke-width="1" opacity="0.7568627450980392" d="M 969.5 332 L 967.5 335 L 969.5 332 Z " /><path fill="rgb(0,0,0)" stroke="rgb(0,0,0)" stroke-width="1" opacity="0.7568627450980392" d="M 657.5 334 L 659.5 337 L 657.5 334 Z " /><path fill="rgb(0,0,0)" stroke="rgb(0,0,0)" stroke-width="1" opacity="0.7568627450980392" d="M 965.5 337 L 962.5 341 L 965.5 337 Z " /><path fill="rgb(0,0,0)" stroke="rgb(0,0,0)" stroke-width="1" opacity="0.7568627450980392" d="M 663.5 341 L 676.5 355 L 663.5 341 Z " /><path fill="rgb(0,0,0)" stroke="rgb(0,0,0)" stroke-width="1" opacity="0.7568627450980392" d="M 958.5 345 L 949.5 355 L 958.5 345 Z " /><path fill="rgb(0,0,0)" stroke="rgb(0,0,0)" stroke-width="1" opacity="0.7568627450980392" d="M 680.5 357 L 683.5 361 L 680.5 357 Z " /><path fill="rgb(0,0,0)" stroke="rgb(0,0,0)" stroke-width="1" opacity="0.7568627450980392" d="M 944.5 358 L 941.5 362 L 944.5 358 Z " /><path fill="rgb(0,0,0)" stroke="rgb(0,0,0)" stroke-width="1" opacity="0.7568627450980392" d="M 686.5 362 L 688.5 365 L 686.5 362 Z " /><path fill="rgb(0,0,0)" stroke="rgb(0,0,0)" stroke-width="1" opacity="0.7568627450980392" d="M 938.5 363 L 936.5 366 L 938.5 363 Z " /><path fill="rgb(0,0,0)" stroke="rgb(0,0,0)" stroke-width="1" opacity="0.7568627450980392" d="M 691.5 366 L 692.5 368 L 691.5 366 Z " /><path fill="rgb(0,0,0)" stroke="rgb(0,0,0)" stroke-width="1" opacity="0.7568627450980392" d="M 933.5 367 L 932.5 369 L 933.5 367 Z " /><path fill="rgb(0,0,0)" stroke="rgb(0,0,0)" stroke-width="1" opacity="0.7568627450980392" d="M 694.5 368 L 695.5 370 L 694.5 368 Z " /><path fill="rgb(0,0,0)" stroke="rgb(0,0,0)" stroke-width="1" opacity="0.7568627450980392" d="M 930.5 369 L 929.5 371 L 930.5 369 Z " /><path fill="rgb(0,0,0)" stroke="rgb(0,0,0)" stroke-width="1" opacity="0.7568627450980392" d="M 921.5 375 L 920.5 377 L 921.5 375 Z " /><path fill="rgb(0,0,0)" stroke="rgb(0,0,0)" stroke-width="1" opacity="0.7568627450980392" d="M 706.5 376 L 707.5 378 L 706.5 376 Z " /><path fill="rgb(0,0,0)" stroke="rgb(0,0,0)" stroke-width="1" opacity="0.7568627450980392" d="M 713.5 380 L 714.5 382 L 713.5 380 Z " /><path fill="rgb(0,0,0)" stroke="rgb(0,0,0)" stroke-width="1" opacity="0.7568627450980392" d="M 855.5 401 L 858 401.5 L 855.5 402 L 855.5 401 Z " /><path fill="rgb(0,0,0)" stroke="rgb(0,0,0)" stroke-width="1" opacity="0.7568627450980392" d="M 850.5 402 L 853 402.5 L 850.5 403 L 850.5 402 Z " /><path fill="rgb(0,0,0)" stroke="rgb(0,0,0)" stroke-width="1" opacity="0.7568627450980392" d="M 778.5 403 L 781 403.5 L 778.5 404 L 778.5 403 Z " /><path fill="rgb(0,0,0)" stroke="rgb(0,0,0)" stroke-width="1" opacity="0.7568627450980392" d="M 844.5 403 L 847 403.5 L 844.5 404 L 844.5 403 Z " /><path fill="rgb(0,0,0)" stroke="rgb(0,0,0)" stroke-width="1" opacity="0.7568627450980392" d="M 785.5 404 L 789 404.5 L 785.5 405 L 785.5 404 Z " /><path fill="rgb(0,0,0)" stroke="rgb(0,0,0)" stroke-width="1" opacity="0.7568627450980392" d="M 836.5 404 L 840 404.5 L 836.5 405 L 836.5 404 Z " /><path fill="rgb(0,0,0)" stroke="rgb(0,0,0)" stroke-width="1" opacity="0.7568627450980392" d="M 794.5 405 L 801 405.5 L 794.5 406 L 794.5 405 Z " /><path fill="rgb(0,0,0)" stroke="rgb(0,0,0)" stroke-width="1" opacity="0.7568627450980392" d="M 823.5 405 L 830 405.5 L 823.5 406 L 823.5 405 Z " /><path fill="rgb(0,0,0)" stroke="rgb(0,0,0)" stroke-width="1" opacity="0.7568627450980392" d="M 453 459 L 1092.5 459 L 1093 459.5 L 1093 561.5 L 1092 561.5 L 1092 460.5 L 1091.5 460 L 454 460 L 453.5 563 L 453 459 Z " /><path fill="rgb(0,0,0)" stroke="rgb(0,0,0)" stroke-width="1" opacity="0.7568627450980392" d="M 556.5 563 L 557 1079 L 454 1078.5 L 556 1078 L 556.5 563 Z " /><path fill="rgb(0,0,0)" stroke="rgb(0,0,0)" stroke-width="1" opacity="0.7568627450980392" d="M 186.5 576 L 198 576.5 L 186.5 577 L 186.5 576 Z " /><path fill="rgb(0,0,0)" stroke="rgb(0,0,0)" stroke-width="1" opacity="0.7568627450980392" d="M 204.5 576 L 216 576.5 L 204.5 577 L 204.5 576 Z " /><path fill="rgb(0,0,0)" stroke="rgb(0,0,0)" stroke-width="1" opacity="0.7568627450980392" d="M 175.5 577 L 180 577.5 L 175.5 578 L 175.5 577 Z " /><path fill="rgb(0,0,0)" stroke="rgb(0,0,0)" stroke-width="1" opacity="0.7568627450980392" d="M 221.5 577 L 226 577.5 L 221.5 578 L 221.5 577 Z " /><path fill="rgb(0,0,0)" stroke="rgb(0,0,0)" stroke-width="1" opacity="0.7568627450980392" d="M 168.5 578 L 171 578.5 L 168.5 579 L 168.5 578 Z " /><path fill="rgb(0,0,0)" stroke="rgb(0,0,0)" stroke-width="1" opacity="0.7568627450980392" d="M 230.5 578 L 233 578.5 L 230.5 579 L 230.5 578 Z " /><path fill="rgb(0,0,0)" stroke="rgb(0,0,0)" stroke-width="1" opacity="0.7568627450980392" d="M 162.5 579 L 165 579.5 L 162.5 580 L 162.5 579 Z " /><path fill="rgb(0,0,0)" stroke="rgb(0,0,0)" stroke-width="1" opacity="0.7568627450980392" d="M 236.5 579 L 239 579.5 L 236.5 580 L 236.5 579 Z " /><path fill="rgb(0,0,0)" stroke="rgb(0,0,0)" stroke-width="1" opacity="0.7568627450980392" d="M 157.5 580 L 160 580.5 L 157.5 581 L 157.5 580 Z " /><path fill="rgb(0,0,0)" stroke="rgb(0,0,0)" stroke-width="1" opacity="0.7568627450980392" d="M 241.5 580 L 244 580.5 L 241.5 581 L 241.5 580 Z " /><path fill="rgb(0,0,0)" stroke="rgb(0,0,0)" stroke-width="1" opacity="0.7568627450980392" d="M 99.5 602 L 98.5 604 L 99.5 602 Z " /><path fill="rgb(0,0,0)" stroke="rgb(0,0,0)" stroke-width="1" opacity="0.7568627450980392" d="M 301.5 602 L 302.5 604 L 301.5 602 Z " /><path fill="rgb(0,0,0)" stroke="rgb(0,0,0)" stroke-width="1" opacity="0.7568627450980392" d="M 306.5 605 L 307.5 607 L 306.5 605 Z " /><path fill="rgb(0,0,0)" stroke="rgb(0,0,0)" stroke-width="1" opacity="0.7568627450980392" d="M 89.5 608 L 88.5 610 L 89.5 608 Z " /><path fill="rgb(0,0,0)" stroke="rgb(0,0,0)" stroke-width="1" opacity="0.7568627450980392" d="M 1002.5 608 L 1003 947.5 L 1001.5 949 L 600.5 949 L 600.5 948 L 1002 948 L 1002.5 608 Z " /><path fill="rgb(0,0,0)" stroke="rgb(0,0,0)" stroke-width="1" opacity="0.7568627450980392" d="M 86.5 610 L 85.5 612 L 86.5 610 Z " /><path fill="rgb(0,0,0)" stroke="rgb(0,0,0)" stroke-width="1" opacity="0.7568627450980392" d="M 83.5 612 L 82.5 614 L 83.5 612 Z " /><path fill="rgb(0,0,0)" stroke="rgb(0,0,0)" stroke-width="1" opacity="0.7568627450980392" d="M 318.5 613 L 319.5 615 L 318.5 613 Z " /><path fill="rgb(0,0,0)" stroke="rgb(0,0,0)" stroke-width="1" opacity="0.7568627450980392" d="M 79.5 615 L 78.5 617 L 79.5 615 Z " /><path fill="rgb(0,0,0)" stroke="rgb(0,0,0)" stroke-width="1" opacity="0.7568627450980392" d="M 321.5 615 L 323.5 618 L 321.5 615 Z " /><path fill="rgb(0,0,0)" stroke="rgb(0,0,0)" stroke-width="1" opacity="0.7568627450980392" d="M 75.5 618 L 73.5 621 L 75.5 618 Z " /><path fill="rgb(0,0,0)" stroke="rgb(0,0,0)" stroke-width="1" opacity="0.7568627450980392" d="M 326.5 619 L 327.5 621 L 326.5 619 Z " /><path fill="rgb(0,0,0)" stroke="rgb(0,0,0)" stroke-width="1" opacity="0.7568627450980392" d="M 70.5 622 L 67.5 626 L 70.5 622 Z " /><path fill="rgb(0,0,0)" stroke="rgb(0,0,0)" stroke-width="1" opacity="0.7568627450980392" d="M 331.5 623 L 334.5 627 L 331.5 623 Z " /><path fill="rgb(0,0,0)" stroke="rgb(0,0,0)" stroke-width="1" opacity="0.7568627450980392" d="M 63.5 628 L 51.5 641 L 63.5 628 Z " /><path fill="rgb(0,0,0)" stroke="rgb(0,0,0)" stroke-width="1" opacity="0.7568627450980392" d="M 341.5 632 L 345.5 637 L 341.5 632 Z " /><path fill="rgb(0,0,0)" stroke="rgb(0,0,0)" stroke-width="1" opacity="0.7568627450980392" d="M 350.5 642 L 354.5 647 L 350.5 642 Z " /><path fill="rgb(0,0,0)" stroke="rgb(0,0,0)" stroke-width="1" opacity="0.7568627450980392" d="M 47.5 645 L 45.5 648 L 47.5 645 Z " /><path fill="rgb(0,0,0)" stroke="rgb(0,0,0)" stroke-width="1" opacity="0.7568627450980392" d="M 356.5 649 L 358.5 652 L 356.5 649 Z " /><path fill="rgb(0,0,0)" stroke="rgb(0,0,0)" stroke-width="1" opacity="0.7568627450980392" d="M 42.5 651 L 41.5 653 L 42.5 651 Z " /><path fill="rgb(0,0,0)" stroke="rgb(0,0,0)" stroke-width="1" opacity="0.7568627450980392" d="M 360.5 654 L 361.5 656 L 360.5 654 Z " /><path fill="rgb(0,0,0)" stroke="rgb(0,0,0)" stroke-width="1" opacity="0.7568627450980392" d="M 39.5 655 L 38.5 657 L 39.5 655 Z " /><path fill="rgb(0,0,0)" stroke="rgb(0,0,0)" stroke-width="1" opacity="0.7568627450980392" d="M 363.5 658 L 364.5 660 L 363.5 658 Z " /><path fill="rgb(0,0,0)" stroke="rgb(0,0,0)" stroke-width="1" opacity="0.7568627450980392" d="M 36.5 659 L 35.5 661 L 36.5 659 Z " /><path fill="rgb(0,0,0)" stroke="rgb(0,0,0)" stroke-width="1" opacity="0.7568627450980392" d="M 365.5 661 L 366.5 663 L 365.5 661 Z " /><path fill="rgb(0,0,0)" stroke="rgb(0,0,0)" stroke-width="1" opacity="0.7568627450980392" d="M 34.5 662 L 33.5 664 L 34.5 662 Z " /><path fill="rgb(0,0,0)" stroke="rgb(0,0,0)" stroke-width="1" opacity="0.7568627450980392" d="M 367.5 664 L 368.5 666 L 367.5 664 Z " /><path fill="rgb(0,0,0)" stroke="rgb(0,0,0)" stroke-width="1" opacity="0.7568627450980392" d="M 32.5 665 L 31.5 667 L 32.5 665 Z " /><path fill="rgb(0,0,0)" stroke="rgb(0,0,0)" stroke-width="1" opacity="0.7568627450980392" d="M 369.5 667 L 370.5 669 L 369.5 667 Z " /><path fill="rgb(0,0,0)" stroke="rgb(0,0,0)" stroke-width="1" opacity="0.7568627450980392" d="M 372.5 672 L 373.5 674 L 372.5 672 Z " /><path fill="rgb(0,0,0)" stroke="rgb(0,0,0)" stroke-width="1" opacity="0.7568627450980392" d="M 26.5 675 L 25.5 677 L 26.5 675 Z " /><path fill="rgb(0,0,0)" stroke="rgb(0,0,0)" stroke-width="1" opacity="0.7568627450980392" d="M 189.5 678 L 195 678.5 L 189.5 679 L 189.5 678 Z " /><path fill="rgb(0,0,0)" stroke="rgb(0,0,0)" stroke-width="1" opacity="0.7568627450980392" d="M 207.5 678 L 213 678.5 L 207.5 679 L 207.5 678 Z " /><path fill="rgb(0,0,0)" stroke="rgb(0,0,0)" stroke-width="1" opacity="0.7568627450980392" d="M 182.5 679 L 185 679.5 L 182.5 680 L 182.5 679 Z " /><path fill="rgb(0,0,0)" stroke="rgb(0,0,0)" stroke-width="1" opacity="0.7568627450980392" d="M 217.5 679 L 220 679.5 L 217.5 680 L 217.5 679 Z " /><path fill="rgb(0,0,0)" stroke="rgb(0,0,0)" stroke-width="1" opacity="0.7568627450980392" d="M 376.5 679 L 377.5 681 L 376.5 679 Z " /><path fill="rgb(0,0,0)" stroke="rgb(0,0,0)" stroke-width="1" opacity="0.7568627450980392" d="M 223.5 680 L 226 680.5 L 223.5 681 L 223.5 680 Z " /><path fill="rgb(0,0,0)" stroke="rgb(0,0,0)" stroke-width="1" opacity="0.7568627450980392" d="M 154.5 688 L 156 688.5 L 153.5 690 L 154.5 688 Z " /><path fill="rgb(0,0,0)" stroke="rgb(0,0,0)" stroke-width="1" opacity="0.7568627450980392" d="M 147.5 692 L 146.5 694 L 147.5 692 Z " /><path fill="rgb(0,0,0)" stroke="rgb(0,0,0)" stroke-width="1" opacity="0.7568627450980392" d="M 255.5 692 L 256.5 694 L 255.5 692 Z " /><path fill="rgb(0,0,0)" stroke="rgb(0,0,0)" stroke-width="1" opacity="0.7568627450980392" d="M 144.5 694 L 143.5 696 L 144.5 694 Z " /><path fill="rgb(0,0,0)" stroke="rgb(0,0,0)" stroke-width="1" opacity="0.7568627450980392" d="M 258.5 694 L 259.5 696 L 258.5 694 Z " /><path fill="rgb(0,0,0)" stroke="rgb(0,0,0)" stroke-width="1" opacity="0.7568627450980392" d="M 141.5 696 L 140.5 698 L 141.5 696 Z " /><path fill="rgb(0,0,0)" stroke="rgb(0,0,0)" stroke-width="1" opacity="0.7568627450980392" d="M 261.5 696 L 263.5 699 L 261.5 696 Z " /><path fill="rgb(0,0,0)" stroke="rgb(0,0,0)" stroke-width="1" opacity="0.7568627450980392" d="M 137.5 699 L 133.5 704 L 137.5 699 Z " /><path fill="rgb(0,0,0)" stroke="rgb(0,0,0)" stroke-width="1" opacity="0.7568627450980392" d="M 266.5 700 L 276.5 711 L 266.5 700 Z " /><path fill="rgb(0,0,0)" stroke="rgb(0,0,0)" stroke-width="1" opacity="0.7568627450980392" d="M 708.5 705 L 709 851 L 892 851.5 L 709.5 852 L 708 850.5 L 708.5 705 Z " /><path fill="rgb(0,0,0)" stroke="rgb(0,0,0)" stroke-width="1" opacity="0.7568627450980392" d="M 128.5 708 L 124.5 713 L 128.5 708 Z " /><path fill="rgb(0,0,0)" stroke="rgb(0,0,0)" stroke-width="1" opacity="0.7568627450980392" d="M 278.5 713 L 280.5 716 L 278.5 713 Z " /><path fill="rgb(0,0,0)" stroke="rgb(0,0,0)" stroke-width="1" opacity="0.7568627450980392" d="M 122.5 715 L 121.5 717 L 122.5 715 Z " /><path fill="rgb(0,0,0)" stroke="rgb(0,0,0)" stroke-width="1" opacity="0.7568627450980392" d="M 281.5 717 L 282.5 719 L 281.5 717 Z " /><path fill="rgb(0,0,0)" stroke="rgb(0,0,0)" stroke-width="1" opacity="0.7568627450980392" d="M 120.5 718 L 119.5 720 L 120.5 718 Z " /><path fill="rgb(0,0,0)" stroke="rgb(0,0,0)" stroke-width="1" opacity="0.7568627450980392" d="M 283.5 720 L 284.5 722 L 283.5 720 Z " /><path fill="rgb(0,0,0)" stroke="rgb(0,0,0)" stroke-width="1" opacity="0.7568627450980392" d="M 118.5 721 L 117.5 723 L 118.5 721 Z " /><path fill="rgb(0,0,0)" stroke="rgb(0,0,0)" stroke-width="1" opacity="0.7568627450980392" d="M 396.5 734 L 397 736.5 L 396 736.5 L 396.5 734 Z " /><path fill="rgb(0,0,0)" stroke="rgb(0,0,0)" stroke-width="1" opacity="0.7568627450980392" d="M 3.5 738 L 4 740.5 L 3 740.5 L 3.5 738 Z " /><path fill="rgb(0,0,0)" stroke="rgb(0,0,0)" stroke-width="1" opacity="0.7568627450980392" d="M 397.5 740 L 398 742.5 L 397 742.5 L 397.5 740 Z " /><path fill="rgb(0,0,0)" stroke="rgb(0,0,0)" stroke-width="1" opacity="0.7568627450980392" d="M 2.5 744 L 3 746.5 L 2 746.5 L 2.5 744 Z " /><path fill="rgb(0,0,0)" stroke="rgb(0,0,0)" stroke-width="1" opacity="0.7568627450980392" d="M 398.5 746 L 399 749.5 L 398 749.5 L 398.5 746 Z " /><path fill="rgb(0,0,0)" stroke="rgb(0,0,0)" stroke-width="1" opacity="0.7568627450980392" d="M 1.5 751 L 2 755.5 L 1 755.5 L 1.5 751 Z " /><path fill="rgb(0,0,0)" stroke="rgb(0,0,0)" stroke-width="1" opacity="0.7568627450980392" d="M 105.5 752 L 106 754.5 L 105 754.5 L 105.5 752 Z " /><path fill="rgb(0,0,0)" stroke="rgb(0,0,0)" stroke-width="1" opacity="0.7568627450980392" d="M 399.5 754 L 400 759.5 L 399 759.5 L 399.5 754 Z " /><path fill="rgb(0,0,0)" stroke="rgb(0,0,0)" stroke-width="1" opacity="0.7568627450980392" d="M 297.5 757 L 298 759.5 L 297 759.5 L 297.5 757 Z " /><path fill="rgb(0,0,0)" stroke="rgb(0,0,0)" stroke-width="1" opacity="0.7568627450980392" d="M 104.5 758 L 105 760.5 L 104 760.5 L 104.5 758 Z " /><path fill="rgb(0,0,0)" stroke="rgb(0,0,0)" stroke-width="1" opacity="0.7568627450980392" d="M 0.5 763 L 1 791.5 L 0 791.5 L 0.5 763 Z " /><path fill="rgb(0,0,0)" stroke="rgb(0,0,0)" stroke-width="1" opacity="0.7568627450980392" d="M 298.5 764 L 299 769.5 L 298 769.5 L 298.5 764 Z " /><path fill="rgb(0,0,0)" stroke="rgb(0,0,0)" stroke-width="1" opacity="0.7568627450980392" d="M 103.5 765 L 104 770.5 L 103 770.5 L 103.5 765 Z " /><path fill="rgb(0,0,0)" stroke="rgb(0,0,0)" stroke-width="1" opacity="0.7568627450980392" d="M 400.5 769 L 401 785.5 L 400 785.5 L 400.5 769 Z " /><path fill="rgb(0,0,0)" stroke="rgb(0,0,0)" stroke-width="1" opacity="0.7568627450980392" d="M 103.5 783 L 104 789.5 L 103 789.5 L 103.5 783 Z " /><path fill="rgb(0,0,0)" stroke="rgb(0,0,0)" stroke-width="1" opacity="0.7568627450980392" d="M 298.5 785 L 299 790.5 L 298 790.5 L 298.5 785 Z " /><path fill="rgb(0,0,0)" stroke="rgb(0,0,0)" stroke-width="1" opacity="0.7568627450980392" d="M 104.5 794 L 105 797.5 L 104 797.5 L 104.5 794 Z " /><path fill="rgb(0,0,0)" stroke="rgb(0,0,0)" stroke-width="1" opacity="0.7568627450980392" d="M 297.5 795 L 298 797.5 L 297 797.5 L 297.5 795 Z " /><path fill="rgb(0,0,0)" stroke="rgb(0,0,0)" stroke-width="1" opacity="0.7568627450980392" d="M 399.5 796 L 400 801.5 L 399 801.5 L 399.5 796 Z " /><path fill="rgb(0,0,0)" stroke="rgb(0,0,0)" stroke-width="1" opacity="0.7568627450980392" d="M 1.5 798 L 2 802.5 L 1 802.5 L 1.5 798 Z " /><path fill="rgb(0,0,0)" stroke="rgb(0,0,0)" stroke-width="1" opacity="0.7568627450980392" d="M 105.5 800 L 106 802.5 L 105 802.5 L 105.5 800 Z " /><path fill="rgb(0,0,0)" stroke="rgb(0,0,0)" stroke-width="1" opacity="0.7568627450980392" d="M 296.5 801 L 297 803.5 L 296 803.5 L 296.5 801 Z " /><path fill="rgb(0,0,0)" stroke="rgb(0,0,0)" stroke-width="1" opacity="0.7568627450980392" d="M 398.5 806 L 399 809.5 L 398 809.5 L 398.5 806 Z " /><path fill="rgb(0,0,0)" stroke="rgb(0,0,0)" stroke-width="1" opacity="0.7568627450980392" d="M 2.5 807 L 3 810.5 L 2 810.5 L 2.5 807 Z " /><path fill="rgb(0,0,0)" stroke="rgb(0,0,0)" stroke-width="1" opacity="0.7568627450980392" d="M 3.5 814 L 4 816.5 L 3 816.5 L 3.5 814 Z " /><path fill="rgb(0,0,0)" stroke="rgb(0,0,0)" stroke-width="1" opacity="0.7568627450980392" d="M 397.5 814 L 398 816.5 L 397 816.5 L 397.5 814 Z " /><path fill="rgb(0,0,0)" stroke="rgb(0,0,0)" stroke-width="1" opacity="0.7568627450980392" d="M 396.5 820 L 397 822.5 L 396 822.5 L 396.5 820 Z " /><path fill="rgb(0,0,0)" stroke="rgb(0,0,0)" stroke-width="1" opacity="0.7568627450980392" d="M 395.5 825 L 396 827.5 L 395 827.5 L 395.5 825 Z " /><path fill="rgb(0,0,0)" stroke="rgb(0,0,0)" stroke-width="1" opacity="0.7568627450980392" d="M 115.5 830 L 116.5 832 L 115.5 830 Z " /><path fill="rgb(0,0,0)" stroke="rgb(0,0,0)" stroke-width="1" opacity="0.7568627450980392" d="M 122.5 841 L 123.5 843 L 122.5 841 Z " /><path fill="rgb(0,0,0)" stroke="rgb(0,0,0)" stroke-width="1" opacity="0.7568627450980392" d="M 278.5 843 L 276.5 846 L 278.5 843 Z " /><path fill="rgb(0,0,0)" stroke="rgb(0,0,0)" stroke-width="1" opacity="0.7568627450980392" d="M 125.5 845 L 129.5 850 L 125.5 845 Z " /><path fill="rgb(0,0,0)" stroke="rgb(0,0,0)" stroke-width="1" opacity="0.7568627450980392" d="M 274.5 848 L 267.5 856 L 274.5 848 Z " /><path fill="rgb(0,0,0)" stroke="rgb(0,0,0)" stroke-width="1" opacity="0.7568627450980392" d="M 134.5 854 L 138.5 859 L 134.5 854 Z " /><path fill="rgb(0,0,0)" stroke="rgb(0,0,0)" stroke-width="1" opacity="0.7568627450980392" d="M 263.5 858 L 262.5 860 L 263.5 858 Z " /><path fill="rgb(0,0,0)" stroke="rgb(0,0,0)" stroke-width="1" opacity="0.7568627450980392" d="M 140.5 859 L 142.5 862 L 140.5 859 Z " /><path fill="rgb(0,0,0)" stroke="rgb(0,0,0)" stroke-width="1" opacity="0.7568627450980392" d="M 259.5 861 L 258.5 863 L 259.5 861 Z " /><path fill="rgb(0,0,0)" stroke="rgb(0,0,0)" stroke-width="1" opacity="0.7568627450980392" d="M 144.5 862 L 145.5 864 L 144.5 862 Z " /><path fill="rgb(0,0,0)" stroke="rgb(0,0,0)" stroke-width="1" opacity="0.7568627450980392" d="M 256.5 863 L 255.5 865 L 256.5 863 Z " /><path fill="rgb(0,0,0)" stroke="rgb(0,0,0)" stroke-width="1" opacity="0.7568627450980392" d="M 147.5 864 L 148.5 866 L 147.5 864 Z " /><path fill="rgb(0,0,0)" stroke="rgb(0,0,0)" stroke-width="1" opacity="0.7568627450980392" d="M 251.5 866 L 250.5 868 L 251.5 866 Z " /><path fill="rgb(0,0,0)" stroke="rgb(0,0,0)" stroke-width="1" opacity="0.7568627450980392" d="M 185.5 878 L 190 878.5 L 185.5 879 L 185.5 878 Z " /><path fill="rgb(0,0,0)" stroke="rgb(0,0,0)" stroke-width="1" opacity="0.7568627450980392" d="M 212.5 878 L 217 878.5 L 212.5 879 L 212.5 878 Z " /><path fill="rgb(0,0,0)" stroke="rgb(0,0,0)" stroke-width="1" opacity="0.7568627450980392" d="M 196.5 879 L 205 879.5 L 196.5 880 L 196.5 879 Z " /><path fill="rgb(0,0,0)" stroke="rgb(0,0,0)" stroke-width="1" opacity="0.7568627450980392" d="M 375.5 882 L 374.5 884 L 375.5 882 Z " /><path fill="rgb(0,0,0)" stroke="rgb(0,0,0)" stroke-width="1" opacity="0.7568627450980392" d="M 371.5 889 L 370.5 891 L 371.5 889 Z " /><path fill="rgb(0,0,0)" stroke="rgb(0,0,0)" stroke-width="1" opacity="0.7568627450980392" d="M 32.5 891 L 33.5 893 L 32.5 891 Z " /><path fill="rgb(0,0,0)" stroke="rgb(0,0,0)" stroke-width="1" opacity="0.7568627450980392" d="M 34.5 894 L 35.5 896 L 34.5 894 Z " /><path fill="rgb(0,0,0)" stroke="rgb(0,0,0)" stroke-width="1" opacity="0.7568627450980392" d="M 36.5 897 L 37.5 899 L 36.5 897 Z " /><path fill="rgb(0,0,0)" stroke="rgb(0,0,0)" stroke-width="1" opacity="0.7568627450980392" d="M 366.5 897 L 365.5 899 L 366.5 897 Z " /><path fill="rgb(0,0,0)" stroke="rgb(0,0,0)" stroke-width="1" opacity="0.7568627450980392" d="M 39.5 901 L 40.5 903 L 39.5 901 Z " /><path fill="rgb(0,0,0)" stroke="rgb(0,0,0)" stroke-width="1" opacity="0.7568627450980392" d="M 361.5 904 L 360.5 906 L 361.5 904 Z " /><path fill="rgb(0,0,0)" stroke="rgb(0,0,0)" stroke-width="1" opacity="0.7568627450980392" d="M 42.5 905 L 43.5 907 L 42.5 905 Z " /><path fill="rgb(0,0,0)" stroke="rgb(0,0,0)" stroke-width="1" opacity="0.7568627450980392" d="M 358.5 908 L 356.5 911 L 358.5 908 Z " /><path fill="rgb(0,0,0)" stroke="rgb(0,0,0)" stroke-width="1" opacity="0.7568627450980392" d="M 46.5 910 L 48.5 913 L 46.5 910 Z " /><path fill="rgb(0,0,0)" stroke="rgb(0,0,0)" stroke-width="1" opacity="0.7568627450980392" d="M 354.5 913 L 351.5 917 L 354.5 913 Z " /><path fill="rgb(0,0,0)" stroke="rgb(0,0,0)" stroke-width="1" opacity="0.7568627450980392" d="M 52.5 917 L 65.5 931 L 52.5 917 Z " /><path fill="rgb(0,0,0)" stroke="rgb(0,0,0)" stroke-width="1" opacity="0.7568627450980392" d="M 347.5 921 L 338.5 931 L 347.5 921 Z " /><path fill="rgb(0,0,0)" stroke="rgb(0,0,0)" stroke-width="1" opacity="0.7568627450980392" d="M 69.5 933 L 72.5 937 L 69.5 933 Z " /><path fill="rgb(0,0,0)" stroke="rgb(0,0,0)" stroke-width="1" opacity="0.7568627450980392" d="M 333.5 934 L 330.5 938 L 333.5 934 Z " /><path fill="rgb(0,0,0)" stroke="rgb(0,0,0)" stroke-width="1" opacity="0.7568627450980392" d="M 75.5 938 L 77.5 941 L 75.5 938 Z " /><path fill="rgb(0,0,0)" stroke="rgb(0,0,0)" stroke-width="1" opacity="0.7568627450980392" d="M 327.5 939 L 325.5 942 L 327.5 939 Z " /><path fill="rgb(0,0,0)" stroke="rgb(0,0,0)" stroke-width="1" opacity="0.7568627450980392" d="M 80.5 942 L 81.5 944 L 80.5 942 Z " /><path fill="rgb(0,0,0)" stroke="rgb(0,0,0)" stroke-width="1" opacity="0.7568627450980392" d="M 322.5 943 L 321.5 945 L 322.5 943 Z " /><path fill="rgb(0,0,0)" stroke="rgb(0,0,0)" stroke-width="1" opacity="0.7568627450980392" d="M 83.5 944 L 84.5 946 L 83.5 944 Z " /><path fill="rgb(0,0,0)" stroke="rgb(0,0,0)" stroke-width="1" opacity="0.7568627450980392" d="M 319.5 945 L 318.5 947 L 319.5 945 Z " /><path fill="rgb(0,0,0)" stroke="rgb(0,0,0)" stroke-width="1" opacity="0.7568627450980392" d="M 310.5 951 L 309.5 953 L 310.5 951 Z " /><path fill="rgb(0,0,0)" stroke="rgb(0,0,0)" stroke-width="1" opacity="0.7568627450980392" d="M 95.5 952 L 96.5 954 L 95.5 952 Z " /><path fill="rgb(0,0,0)" stroke="rgb(0,0,0)" stroke-width="1" opacity="0.7568627450980392" d="M 102.5 956 L 103.5 958 L 102.5 956 Z " /><path fill="rgb(0,0,0)" stroke="rgb(0,0,0)" stroke-width="1" opacity="0.7568627450980392" d="M 244.5 977 L 247 977.5 L 244.5 978 L 244.5 977 Z " /><path fill="rgb(0,0,0)" stroke="rgb(0,0,0)" stroke-width="1" opacity="0.7568627450980392" d="M 239.5 978 L 242 978.5 L 239.5 979 L 239.5 978 Z " /><path fill="rgb(0,0,0)" stroke="rgb(0,0,0)" stroke-width="1" opacity="0.7568627450980392" d="M 167.5 979 L 170 979.5 L 167.5 980 L 167.5 979 Z " /><path fill="rgb(0,0,0)" stroke="rgb(0,0,0)" stroke-width="1" opacity="0.7568627450980392" d="M 233.5 979 L 236 979.5 L 233.5 980 L 233.5 979 Z " /><path fill="rgb(0,0,0)" stroke="rgb(0,0,0)" stroke-width="1" opacity="0.7568627450980392" d="M 174.5 980 L 178 980.5 L 174.5 981 L 174.5 980 Z " /><path fill="rgb(0,0,0)" stroke="rgb(0,0,0)" stroke-width="1" opacity="0.7568627450980392" d="M 225.5 980 L 229 980.5 L 225.5 981 L 225.5 980 Z " /><path fill="rgb(0,0,0)" stroke="rgb(0,0,0)" stroke-width="1" opacity="0.7568627450980392" d="M 183.5 981 L 190 981.5 L 183.5 982 L 183.5 981 Z " /><path fill="rgb(0,0,0)" stroke="rgb(0,0,0)" stroke-width="1" opacity="0.7568627450980392" d="M 212.5 981 L 219 981.5 L 212.5 982 L 212.5 981 Z " /><path fill="rgb(0,0,0)" stroke="rgb(0,0,0)" stroke-width="1" opacity="1" d="M 809.5 0 L 831.5 1 L 832.5 2 L 840.5 2 L 856.5 5 L 893.5 17 Q 933.6 34.9 961 65.5 Q 989.4 95.6 1003 140.5 L 1010 174.5 L 1010 183.5 L 1011 184.5 L 1011 219.5 L 1010 220.5 L 1010 229.5 L 1009 230.5 L 1009 237.5 L 1006 253.5 Q 1000.9 276.4 992 295.5 Q 974.6 332.6 945.5 358 Q 918.9 381.9 881.5 395 L 843.5 404 L 823.5 405 L 822.5 406 L 801.5 406 L 800.5 405 L 789.5 405 L 788.5 404 L 770.5 402 L 754.5 398 L 727.5 388 Q 687.3 369.3 660 337.5 Q 634.4 308.6 621 267.5 L 615 243.5 L 613 222.5 L 612 221.5 L 612 180.5 L 613 179.5 L 613 171.5 L 614 170.5 L 615 159.5 L 619 142.5 Q 625.5 120 636 101.5 Q 652.6 71.6 677.5 50 Q 703.6 26.6 739.5 13 L 754.5 8 L 776.5 3 L 790.5 2 L 791.5 1 L 808.5 1 L 809.5 0 Z M 801 102 L 781 106 L 773 109 Q 759 115 749 123 Q 736 133 728 147 Q 721 158 717 173 L 714 190 L 714 214 L 718 235 Q 724 255 736 270 Q 750 287 772 296 L 787 301 L 797 303 L 807 303 L 808 304 Q 854 303 879 280 Q 894 267 902 247 L 908 228 L 909 216 L 910 215 L 910 189 L 907 172 Q 901 150 888 135 Q 874 118 853 109 L 837 104 L 825 103 L 824 102 L 801 102 Z " /><path fill="rgb(0,0,0)" stroke="rgb(0,0,0)" stroke-width="1" opacity="1" d="M 454 460 L 1091.5 460 L 1092 460.5 L 1092 562 L 557.5 562 L 556 563.5 L 556 1077.5 L 555.5 1078 L 454 1078 L 454 460 Z " /><path fill="rgb(0,0,0)" stroke="rgb(0,0,0)" stroke-width="1" opacity="1" d="M 198.5 576 L 220.5 577 L 221.5 578 L 229.5 578 L 245.5 581 L 282.5 593 Q 322.6 610.9 350 641.5 Q 378.4 671.6 392 716.5 L 399 750.5 L 399 759.5 L 400 760.5 L 400 795.5 L 399 796.5 L 399 805.5 L 398 806.5 L 398 813.5 L 395 829.5 Q 389.9 852.4 381 871.5 Q 363.6 908.6 334.5 934 Q 307.9 957.9 270.5 971 L 232.5 980 L 212.5 981 L 211.5 982 L 190.5 982 L 189.5 981 L 178.5 981 L 177.5 980 L 159.5 978 L 143.5 974 L 116.5 964 Q 76.3 945.3 49 913.5 Q 23.4 884.6 10 843.5 L 4 819.5 L 2 798.5 L 1 797.5 L 1 756.5 L 2 755.5 L 2 747.5 L 3 746.5 L 4 735.5 L 8 718.5 Q 14.5 696 25 677.5 Q 41.6 647.6 66.5 626 Q 92.6 602.6 128.5 589 L 143.5 584 L 165.5 579 L 179.5 578 L 180.5 577 L 197.5 577 L 198.5 576 Z M 190 678 L 170 682 L 162 685 Q 148 691 138 699 Q 125 709 117 723 Q 110 734 106 749 L 103 766 L 103 790 L 107 811 Q 113 831 125 846 Q 139 863 161 872 L 176 877 L 186 879 L 196 879 L 197 880 Q 243 879 268 856 Q 283 843 291 823 L 297 804 L 298 792 L 299 791 L 299 765 L 296 748 Q 290 726 277 711 Q 263 694 242 685 L 226 680 L 214 679 L 213 678 L 190 678 Z " /><path fill="rgb(0,0,0)" stroke="rgb(0,0,0)" stroke-width="1" opacity="1" d="M 600 608 L 1002 608 L 1002 948 L 600 948 L 600 608 Z M 708 705 L 708 851 L 710 852 L 892 852 L 892 705 L 708 705 Z " /></svg>