<svg width="1059" height="776" version="1.1" xmlns="http://www.w3.org/2000/svg" desc="Created with imagetracer.js version 1.2.6" ><path fill="rgb(0,0,0)" stroke="rgb(0,0,0)" stroke-width="1" opacity="0" d="M 0 0 L 204 0.5 L 186.5 2 L 181 1 L 180.5 4 L 180 2 L 174 2 L 173.5 4 L 168.5 4 L 167.5 5 L 161 5 Q 162.3 8.3 157.5 7 L 154.5 6 L 152.5 8 L 148.5 8 L 141.5 12 L 136.5 12 Q 135.5 15 130.5 14 L 127.5 17 L 119 19 Q 120.3 22 116.5 21 L 99 31 Q 100.3 34 96.5 33 L 89.5 39 L 85 40 Q 86.8 44.5 81.5 43 L 80 46 L 75 48 Q 76.1 50.7 73.5 50 L 67 55 L 60.5 63 L 58 64.5 L 56.5 67 Q 54.3 66.3 55 68.5 L 43 81.5 L 44 82.5 L 41 85.5 L 39.5 89 Q 35.3 87.7 37 92.5 L 32.5 99 Q 30.3 98.3 31 100.5 L 29 106 L 26 106.5 L 26.5 108 Q 23.5 107.1 25 111.5 L 21.5 119 Q 17.3 117.7 19 122.5 L 17 125.5 L 16 132.5 L 13 135.5 L 10 149 L 7 150.5 Q 11 152.5 7 154.5 Q 8 160.5 5 162.5 L 5 168.5 L 2 175 Q 5 173.8 4 177.5 L 2 181.5 Q 4.5 183 1 184.5 L 2 189.5 L 1 190.5 L 0.5 199 L 0 0 Z " /><path fill="rgb(0,0,0)" stroke="rgb(0,0,0)" stroke-width="1" opacity="0" d="M 205.5 0 L 212 0.5 L 205.5 1 L 205.5 0 Z " /><path fill="rgb(0,0,0)" stroke="rgb(0,0,0)" stroke-width="1" opacity="0" d="M 214.5 0 L 847 0.5 L 836.5 2 L 833.5 1 L 830.5 3 L 826.5 2 L 824.5 4 L 818.5 4 L 805.5 8 L 799 8 L 797.5 11 L 793.5 11 L 784.5 14 L 781.5 17 L 773.5 19 L 767 23 Q 768.3 26.3 763.5 25 L 753.5 31 L 750 31 L 748.5 34 L 746.5 34 L 741 38 L 738.5 42 L 732 46.5 L 730.5 49 L 728 49 Q 729.3 52 725.5 51 L 724 55 L 718 58 L 716 63 L 712 64 Q 713.5 67.8 710.5 67 L 706 70 L 706 72.5 L 702.5 77 L 700 78.5 L 699 82 Q 696.3 80.9 697 83.5 Q 691.2 87.1 690 94 Q 685.5 92.3 687 97.5 L 683 103.5 L 683.5 105 Q 679.8 103.8 681 107.5 L 674 118.5 Q 673.5 126.2 670 130 L 668 130.5 L 668 132.5 L 666 137.5 L 666 142.5 L 664.5 144 Q 661.1 143.1 663 148.5 L 659 162.5 L 659 164.5 Q 660 169.5 657 168.5 L 657 175.5 L 656 176.5 L 656 186.5 L 655 187.5 L 655 219.5 L 656 221.5 L 655 225.5 L 662 260.5 L 665 264.5 L 670 282.5 L 681 304.5 L 688 313.5 L 688 317 L 692 319.5 L 692 321.5 L 700 331.5 L 729.5 361 L 741 369 Q 739.9 371.7 742.5 371 L 746.5 374 Q 748 371.5 749.5 375 L 764.5 385 L 767.5 385 L 779.5 392 L 783.5 392 L 793.5 398 L 796.5 397 L 805.5 401 L 811.5 401 L 815.5 404 L 819.5 403 L 824.5 405 L 826.5 404 L 834.5 406 L 836.5 406 L 844.5 407 L 848.5 406 L 851.5 407 L 853.5 406 L 855.5 406 L 859.5 407 L 867.5 405 Q 869.3 407.8 875.5 406 L 888.5 403 L 894.5 403 L 896.5 401 L 901.5 401 L 911.5 397 L 914 398 L 914.5 396 L 916.5 396 Q 920.3 396.8 921 394.5 Q 920.1 391.5 924.5 393 Q 925.9 390.4 930.5 391 L 933.5 388 L 936 388 Q 934.7 384.7 939.5 386 L 949.5 380 L 953 380 Q 951.8 377 955.5 378 L 967.5 368 L 972 367 Q 970.9 364.3 973.5 365 L 977 363 Q 975.9 360.3 978.5 361 L 990 351.5 L 991.5 349 L 995 346.5 Q 994.3 344.3 996.5 345 L 999 341 L 1002 339.5 L 1003.5 337 Q 1005.8 337.8 1005 335.5 L 1009 330 L 1012 328.5 L 1013.5 326 Q 1015.8 326.8 1015 324.5 L 1018.5 320 Q 1021.1 320.8 1020 317.5 Q 1024 316.1 1023 311 L 1026 309.5 L 1025 308.5 L 1028.5 305 Q 1031.1 305.8 1030 302.5 Q 1035.4 299.8 1033.5 297 Q 1035.8 297.8 1035 295.5 Q 1032.5 294 1036 292.5 L 1038 289.5 Q 1035.5 288 1039 286.5 L 1042 281.5 Q 1039.5 280 1043 278.5 L 1048 266.5 L 1049 258.5 L 1052 254.5 L 1055 238.5 L 1054 236.5 L 1057 231.5 L 1057 226.5 Q 1054.5 225 1058 223.5 L 1058.5 212 L 1059 776 L 883.5 776 L 883 774.5 L 892.5 765 L 894 765 L 894 763.5 L 918.5 739 Q 920.8 739.8 920 737.5 L 926 733 L 929.5 728 L 932 726.5 L 936.5 721 Q 938.8 721.8 938 719.5 L 945 713.5 L 948.5 709 L 951 707.5 L 954.5 703 L 957 701.5 L 961.5 696 L 964 694.5 L 964 692.5 L 536.5 265 L 108 692.5 L 189 774.5 L 189 776 L 0.5 776 L 0 775.5 L 0 201.5 L 1 201.5 L 1 222.5 L 2.5 223 L 2 224.5 L 2 234.5 L 4 236.5 L 7 256.5 L 10 260.5 L 10 265.5 L 14 277.5 L 19 286.5 L 20 292 Q 22.7 290.9 22 293.5 L 30 309.5 L 45.5 330 Q 48.1 329.2 47 332.5 L 62.5 350 L 73.5 360 Q 78.3 360.3 80 363.5 L 81.5 366 L 83.5 366 L 100.5 380 L 102.5 379 L 118 388.5 L 118.5 390 L 120.5 389 L 133.5 395 L 135 394.5 Q 134.3 396.8 136.5 396 L 143.5 399 L 151.5 400 L 155.5 403 Q 157.5 399 159.5 403 L 166.5 405 L 168.5 404 L 175.5 406 L 177.5 405 L 184.5 407 L 187.5 406 L 189.5 407 L 191.5 407 L 223.5 406 L 224.5 405 L 243.5 403 L 247.5 400 L 256.5 399 L 268.5 393 L 274 393 Q 272.9 390.3 275.5 391 L 280 390 Q 278.7 386.7 283.5 388 Q 285.6 384.1 291 385 Q 289.5 381.3 292.5 382 L 302 377.5 Q 301.3 375.3 303.5 376 L 306 375.5 L 307.5 373 L 311 373 Q 309.9 370.3 312.5 371 L 315 367 L 324 362 Q 322.9 359.3 325.5 360 L 329 359 L 330.5 355 L 333.5 353 L 341 347.5 Q 339.9 344.2 342.5 345 L 349 339.5 L 351.5 335 Q 354.1 335.8 353 332.5 L 356 331 L 357.5 328 Q 361.7 329.3 360 324.5 Q 365.3 321 367 315 L 371 312.5 Q 370.3 310.3 372.5 311 L 372.5 309 Q 375.5 309.9 374 305.5 Q 377.7 304.3 377 300 L 379 299.5 L 378.5 298 Q 381.5 298.9 380 294.5 L 383 292.5 Q 380.5 291 384 289.5 L 387 283.5 L 387 280.5 L 391 275.5 L 394 261 L 397 260.5 L 396 258.5 L 403 231.5 L 402 229.5 L 404 219.5 L 404 217.5 L 405 206.5 Q 402.8 205.2 404 200.5 L 405 198.5 L 404 197.5 L 404 185.5 L 402 175.5 L 403 172.5 L 399 161.5 L 399 156.5 L 396 143.5 L 393 139.5 L 391 134.5 L 391 130.5 L 388 126.5 L 389 125.5 L 386 122.5 L 384 113 L 381 111.5 L 372 93.5 L 351.5 68 L 349 66.5 L 344.5 61 Q 342.3 61.8 343 59.5 L 337 55 L 332.5 49 L 330.5 49 Q 319.9 38.1 306.5 30 Q 305 32.5 303.5 29 L 294.5 23 L 292 23 Q 293.3 20 289.5 21 L 275.5 14 L 273.5 14 L 270.5 14 L 262.5 10 L 260.5 11 L 250.5 6 L 248.5 7 L 239.5 4 L 237.5 5 L 231.5 2 L 231 4 Q 227.9 4.8 228.5 2 L 223.5 2 L 221.5 2 L 214.5 1 L 214.5 0 Z " /><path fill="rgb(0,0,0)" stroke="rgb(0,0,0)" stroke-width="1" opacity="0" d="M 849.5 0 L 855 0.5 L 849.5 1 L 849.5 0 Z " /><path fill="rgb(0,0,0)" stroke="rgb(0,0,0)" stroke-width="1" opacity="0" d="M 858.5 0 L 863 0.5 L 858.5 1 L 858.5 0 Z " /><path fill="rgb(0,0,0)" stroke="rgb(0,0,0)" stroke-width="1" opacity="0" d="M 865.5 0 L 870 0.5 L 865.5 1 L 865.5 0 Z " /><path fill="rgb(0,0,0)" stroke="rgb(0,0,0)" stroke-width="1" opacity="0" d="M 872.5 0 L 1059 0 L 1059 191.5 L 1058 191.5 L 1058 182.5 Q 1055.3 183.1 1056 180 L 1058 179.5 Q 1054.5 178 1057 176.5 L 1057 174 L 1055 173.5 L 1055 167.5 L 1051 147.5 L 1049 145.5 L 1045 129.5 L 1041 123.5 L 1039 116.5 L 1034 109.5 L 1033 104.5 L 1025.5 93 L 1023 91.5 L 1021 85.5 L 1007.5 69 L 1004 66.5 L 1001.5 63 L 997 59.5 L 994.5 56 L 991 53.5 L 988.5 50 L 972.5 37 Q 971 39.5 969.5 36 Q 966.2 37.1 967 34.5 L 956.5 27 L 949.5 25 L 944.5 21 L 923.5 12 L 921.5 12 Q 915.3 11.7 912.5 8 L 907.5 8 L 900.5 5 L 897.5 6 Q 896.1 3.4 891.5 4 L 889.5 4 L 880.5 1 L 876.5 2 L 872.5 1 L 872.5 0 Z " /><path fill="rgb(0,0,0)" stroke="rgb(0,0,0)" stroke-width="1" opacity="0" d="M 205.5 104 L 211.5 106 L 216.5 105 L 221.5 107 L 223.5 106 L 231.5 110 L 233.5 109 L 253.5 118 Q 269.5 129.5 282 144.5 L 289.5 156 Q 292.1 155.2 291 158.5 L 300 179.5 L 300 181.5 L 301 185.5 L 301 187.5 Q 299.8 193.5 303 192.5 L 303 206.5 Q 299 208.5 303 210.5 L 303 212 L 301 212.5 L 301 218.5 Q 297.8 222.8 298 230.5 L 293 238.5 L 291 245.5 Q 286.8 248.3 286 254.5 L 277.5 264 Q 273.8 262.8 275 266.5 L 257.5 283 L 255 283 Q 256.8 287.5 251.5 286 L 243.5 292 L 239.5 292 Q 238.4 294.8 235 294 Q 236.1 297.5 228.5 296 L 222.5 300 L 216.5 300 L 208.5 302 L 194.5 302 L 192.5 302 L 184.5 300 L 182.5 301 L 173.5 298 L 171.5 298 L 160.5 292 L 158.5 292 Q 140.1 281.9 127 266.5 L 113 246.5 L 107 230.5 Q 109.5 229 106 227.5 L 104 213.5 L 105 211.5 Q 102.8 210.3 104 205.5 L 105 201.5 L 104 197.5 L 106 189.5 L 106 187.5 Q 105.5 183 109 182.5 L 109 180.5 L 111 170 L 115 168 L 115 164.5 L 119 154 L 123 153 L 123 150.5 L 128.5 144 Q 130.8 144.8 130 142.5 L 135 136 L 155 119.5 Q 154.1 116.1 159.5 118 L 165 114.5 L 165 113 L 170.5 113 L 171 111 L 173.5 111 L 176.5 109 Q 182.5 110.5 184 107.5 Q 183.2 104.9 186.5 106 L 189.5 107 L 190.5 106 L 203.5 105 L 205 105.5 L 205.5 104 Z " /><path fill="rgb(0,0,0)" stroke="rgb(0,0,0)" stroke-width="1" opacity="0" d="M 855.5 104 L 861.5 105 L 864.5 104 L 871.5 106 L 873.5 105 L 882.5 108 L 885 107 Q 883.8 110 887.5 109 L 892.5 112 L 894.5 112 L 900.5 114 L 910.5 122 L 912.5 121 L 936 143.5 L 940 148.5 L 940 151.5 L 948 162.5 L 948 165.5 L 952 171.5 Q 949.5 173 953 174.5 L 956 191.5 L 955 193.5 L 956 194.5 L 956 209.5 L 955 210.5 L 955 217.5 L 953 227.5 L 950 230.5 Q 950 236.5 947 239.5 L 947.5 241 Q 944.9 240.2 946 243.5 L 943 245 L 942 250 Q 939 248.8 940 252.5 L 935 258.5 L 935.5 260 L 932 261.5 L 928 267.5 L 924 270.5 L 922.5 273 Q 920.3 272.3 921 274.5 L 916 277.5 Q 917.3 281.7 912.5 280 L 906 284.5 L 904.5 287 L 899 289 Q 900.1 291.7 897.5 291 L 894.5 293 L 885.5 295 L 882.5 298 L 873.5 299 L 869.5 301 L 866.5 300 L 856.5 302 L 852.5 301 L 848.5 302 L 834.5 299 L 832.5 299 L 828.5 299 L 822.5 295 L 820.5 296 L 812.5 291 L 810 291 L 808.5 288 L 804.5 286 L 803.5 287 L 799.5 283 L 794.5 279 L 792 279 L 788.5 274 L 786 272.5 L 781.5 267 Q 778.9 267.8 780 264.5 L 775 259.5 L 769.5 249 Q 766.9 249.8 768 246.5 L 764 239.5 L 764 235.5 L 761 231.5 L 758 210.5 L 759 205.5 L 758 202.5 L 759 201.5 L 760 185.5 L 762 178.5 L 765 174.5 L 766 167.5 L 770 163.5 L 773 155.5 L 781.5 143 L 786 141 L 787.5 137 Q 790.8 138.1 790 135.5 L 793.5 131 L 798 129 L 799.5 125 L 803 125 Q 801.9 122.3 804.5 123 L 809.5 119 L 812 119 Q 810.7 115.7 815.5 117 Q 817.8 113 823 113 Q 821.6 109.3 827.5 111 L 834.5 107 Q 841.9 107.9 845.5 105 L 847.5 106 L 855.5 104 Z " /><path fill="rgb(0,0,0)" stroke="rgb(0,0,0)" stroke-width="1" opacity="0" d="M 1058.5 195 L 1059 200.5 L 1058 200.5 L 1058.5 195 Z " /><path fill="rgb(0,0,0)" stroke="rgb(0,0,0)" stroke-width="1" opacity="0" d="M 1058.5 206 L 1059 209.5 L 1058 209.5 L 1058.5 206 Z " /><path fill="rgb(0,0,0)" stroke="rgb(0,0,0)" stroke-width="1" opacity="0" d="M 535.5 432 L 880 775.5 L 192.5 776 L 535.5 432 Z " /><path fill="rgb(0,0,0)" stroke="rgb(0,0,0)" stroke-width="1" opacity="0.792156862745098" d="M 213.5 0 L 221.5 2 L 223.5 2 L 229 2.5 L 223.5 3 L 221.5 3 L 213 2 L 213.5 0 Z " /><path fill="rgb(0,0,0)" stroke="rgb(0,0,0)" stroke-width="1" opacity="0.792156862745098" d="M 855.5 0 L 854.5 2 L 849 1.5 L 855.5 0 Z " /><path fill="rgb(0,0,0)" stroke="rgb(0,0,0)" stroke-width="1" opacity="0.792156862745098" d="M 857.5 0 L 862.5 1 L 864.5 0 L 869.5 1 L 871 0.5 Q 871.6 3.3 865.5 2 L 863.5 1 L 858.5 2 L 857.5 0 Z " /><path fill="rgb(0,0,0)" stroke="rgb(0,0,0)" stroke-width="1" opacity="0.792156862745098" d="M 181 1 L 189.5 2 L 190.5 1 L 203.5 1 L 203.5 2 Q 193.2 0.7 186.5 3 L 182 2 L 181.5 4 L 181 1 Z " /><path fill="rgb(0,0,0)" stroke="rgb(0,0,0)" stroke-width="1" opacity="0.792156862745098" d="M 205.5 1 L 212 1.5 L 205.5 2 L 205.5 1 Z " /><path fill="rgb(0,0,0)" stroke="rgb(0,0,0)" stroke-width="1" opacity="0.792156862745098" d="M 833.5 1 L 839.5 2 Q 841 -0.5 846.5 1 L 846.5 2 L 836.5 3 L 833.5 2 L 830.5 4 L 826.5 3 L 825 3.5 Q 825.8 1.3 829.5 2 L 831.5 3 L 833.5 1 Z " /><path fill="rgb(0,0,0)" stroke="rgb(0,0,0)" stroke-width="1" opacity="0.792156862745098" d="M 872.5 1 L 879.5 2 L 881.5 2 Q 886 1 887 3.5 L 885.5 3 L 880.5 2 L 876.5 3 L 872.5 2 L 872.5 1 Z " /><path fill="rgb(0,0,0)" stroke="rgb(0,0,0)" stroke-width="1" opacity="0.792156862745098" d="M 174.5 2 L 180 2.5 L 174.5 3 L 174.5 2 Z " /><path fill="rgb(0,0,0)" stroke="rgb(0,0,0)" stroke-width="1" opacity="0.792156862745098" d="M 231.5 2 L 232.5 4 L 231.5 2 Z " /><path fill="rgb(0,0,0)" stroke="rgb(0,0,0)" stroke-width="1" opacity="0.792156862745098" d="M 156.5 6 L 161 7.5 L 157.5 8 L 155 7.5 L 156.5 6 Z " /><path fill="rgb(0,0,0)" stroke="rgb(0,0,0)" stroke-width="1" opacity="0.792156862745098" d="M 247.5 6 L 249.5 7 L 251.5 6 L 259 9.5 L 257.5 10 L 250.5 7 L 248.5 8 L 247.5 6 Z " /><path fill="rgb(0,0,0)" stroke="rgb(0,0,0)" stroke-width="1" opacity="0.792156862745098" d="M 903.5 6 L 915 9.5 L 913.5 10 L 904.5 8 L 903.5 6 Z " /><path fill="rgb(0,0,0)" stroke="rgb(0,0,0)" stroke-width="1" opacity="0.792156862745098" d="M 153.5 7 L 152.5 9 Q 147.2 8.2 145.5 11 L 145.5 10 L 153.5 7 Z " /><path fill="rgb(0,0,0)" stroke="rgb(0,0,0)" stroke-width="1" opacity="0.792156862745098" d="M 806.5 7 L 810 7.5 Q 806.3 9.8 799.5 9 L 799.5 8 Q 805 9.5 806.5 7 Z " /><path fill="rgb(0,0,0)" stroke="rgb(0,0,0)" stroke-width="1" opacity="0.792156862745098" d="M 921.5 12 L 922.5 14 L 921.5 12 Z " /><path fill="rgb(0,0,0)" stroke="rgb(0,0,0)" stroke-width="1" opacity="0.792156862745098" d="M 135.5 13 L 134.5 15 Q 129.5 14 128.5 17 L 130.5 14 L 135.5 13 Z " /><path fill="rgb(0,0,0)" stroke="rgb(0,0,0)" stroke-width="1" opacity="0.792156862745098" d="M 269.5 13 L 274.5 15 L 276.5 15 L 278 15.5 L 276.5 16 L 273.5 15 Q 268.9 15.8 269.5 13 Z " /><path fill="rgb(0,0,0)" stroke="rgb(0,0,0)" stroke-width="1" opacity="0.792156862745098" d="M 787.5 13 L 790 13.5 Q 784.7 13.7 782.5 17 L 784.5 14 L 787.5 13 Z " /><path fill="rgb(0,0,0)" stroke="rgb(0,0,0)" stroke-width="1" opacity="0.792156862745098" d="M 924.5 13 L 927.5 13 L 933 16.5 L 931.5 16 L 924.5 14 L 924.5 13 Z " /><path fill="rgb(0,0,0)" stroke="rgb(0,0,0)" stroke-width="1" opacity="0.792156862745098" d="M 283.5 18 L 285.5 20 L 292 21.5 L 289.5 22 L 285.5 21 L 283.5 18 Z " /><path fill="rgb(0,0,0)" stroke="rgb(0,0,0)" stroke-width="1" opacity="0.792156862745098" d="M 776.5 18 L 775.5 20 L 769.5 23 L 771.5 20 L 776.5 18 Z " /><path fill="rgb(0,0,0)" stroke="rgb(0,0,0)" stroke-width="1" opacity="0.792156862745098" d="M 938.5 18 L 946 22.5 L 944.5 22 Q 938.9 21.2 938.5 18 Z " /><path fill="rgb(0,0,0)" stroke="rgb(0,0,0)" stroke-width="1" opacity="0.792156862745098" d="M 119 19 L 123 19.5 L 120 20 Q 121.3 23.3 116.5 22 L 115 22.5 L 119 21 L 119 19 Z " /><path fill="rgb(0,0,0)" stroke="rgb(0,0,0)" stroke-width="1" opacity="0.792156862745098" d="M 294.5 23 L 302 28.5 L 299.5 27 Q 294.9 26.3 294.5 23 Z " /><path fill="rgb(0,0,0)" stroke="rgb(0,0,0)" stroke-width="1" opacity="0.792156862745098" d="M 109.5 25 L 111 25.5 Q 104.6 26.6 101.5 31 L 104.5 27 L 109.5 25 Z " /><path fill="rgb(0,0,0)" stroke="rgb(0,0,0)" stroke-width="1" opacity="0.792156862745098" d="M 763.5 25 L 767 25.5 L 757.5 29 L 758.5 27 L 763.5 25 Z " /><path fill="rgb(0,0,0)" stroke="rgb(0,0,0)" stroke-width="1" opacity="0.792156862745098" d="M 950.5 25 Q 956.4 25.6 959 29.5 L 956.5 28 L 950.5 26 L 950.5 25 Z " /><path fill="rgb(0,0,0)" stroke="rgb(0,0,0)" stroke-width="1" opacity="0.792156862745098" d="M 306.5 30 L 314 35.5 L 310.5 33 Q 305.8 32.2 306.5 30 Z " /><path fill="rgb(0,0,0)" stroke="rgb(0,0,0)" stroke-width="1" opacity="0.792156862745098" d="M 750.5 31 L 751 34 Q 744.8 34.4 741.5 39 L 741.5 38 L 750 32.5 L 750.5 31 Z " /><path fill="rgb(0,0,0)" stroke="rgb(0,0,0)" stroke-width="1" opacity="0.792156862745098" d="M 962.5 32 L 967 34.5 L 965.5 34 Q 961.7 34.5 962.5 32 Z " /><path fill="rgb(0,0,0)" stroke="rgb(0,0,0)" stroke-width="1" opacity="0.792156862745098" d="M 96.5 33 L 99 33.5 L 94.5 36 L 96.5 33 Z " /><path fill="rgb(0,0,0)" stroke="rgb(0,0,0)" stroke-width="1" opacity="0.792156862745098" d="M 315.5 36 L 322 41.5 L 319.5 40 L 315.5 36 Z " /><path fill="rgb(0,0,0)" stroke="rgb(0,0,0)" stroke-width="1" opacity="0.792156862745098" d="M 969.5 36 L 971.5 39 L 969.5 36 Z " /><path fill="rgb(0,0,0)" stroke="rgb(0,0,0)" stroke-width="1" opacity="0.792156862745098" d="M 90.5 38 L 89.5 40 L 85.5 41 L 85.5 40 L 90.5 38 Z " /><path fill="rgb(0,0,0)" stroke="rgb(0,0,0)" stroke-width="1" opacity="0.792156862745098" d="M 973.5 38 L 976.5 42 L 973.5 38 Z " /><path fill="rgb(0,0,0)" stroke="rgb(0,0,0)" stroke-width="1" opacity="0.792156862745098" d="M 740.5 40 L 739.5 42 L 740.5 40 Z " /><path fill="rgb(0,0,0)" stroke="rgb(0,0,0)" stroke-width="1" opacity="0.792156862745098" d="M 737.5 42 L 734.5 46 Q 732.3 45.3 733 47.5 L 731 48.5 L 733.5 45 L 737.5 42 Z " /><path fill="rgb(0,0,0)" stroke="rgb(0,0,0)" stroke-width="1" opacity="0.792156862745098" d="M 81.5 43 L 80.5 45 L 81.5 43 Z " /><path fill="rgb(0,0,0)" stroke="rgb(0,0,0)" stroke-width="1" opacity="0.792156862745098" d="M 325.5 44 L 327.5 47 L 325.5 44 Z " /><path fill="rgb(0,0,0)" stroke="rgb(0,0,0)" stroke-width="1" opacity="0.792156862745098" d="M 980.5 44 L 982.5 47 L 980.5 44 Z " /><path fill="rgb(0,0,0)" stroke="rgb(0,0,0)" stroke-width="1" opacity="0.792156862745098" d="M 78.5 46 L 80 46.5 L 77.5 48 L 78.5 46 Z " /><path fill="rgb(0,0,0)" stroke="rgb(0,0,0)" stroke-width="1" opacity="0.792156862745098" d="M 75.5 48 L 76 49.5 L 69.5 55 L 73.5 50 Q 76 50.7 75.5 48 Z " /><path fill="rgb(0,0,0)" stroke="rgb(0,0,0)" stroke-width="1" opacity="0.792156862745098" d="M 332.5 49 L 336.5 54 L 332.5 49 Z " /><path fill="rgb(0,0,0)" stroke="rgb(0,0,0)" stroke-width="1" opacity="0.792156862745098" d="M 988.5 50 L 990.5 53 L 988 52 L 988.5 50 Z " /><path fill="rgb(0,0,0)" stroke="rgb(0,0,0)" stroke-width="1" opacity="0.792156862745098" d="M 725.5 51 L 728 51.5 L 725 53.5 L 724.5 55 L 724 52.5 L 725.5 51 Z " /><path fill="rgb(0,0,0)" stroke="rgb(0,0,0)" stroke-width="1" opacity="0.792156862745098" d="M 338.5 55 L 342.5 60 L 338.5 55 Z " /><path fill="rgb(0,0,0)" stroke="rgb(0,0,0)" stroke-width="1" opacity="0.792156862745098" d="M 994.5 56 L 996.5 59 L 994 58 L 994.5 56 Z " /><path fill="rgb(0,0,0)" stroke="rgb(0,0,0)" stroke-width="1" opacity="0.792156862745098" d="M 66.5 57 L 63.5 61 L 66.5 57 Z " /><path fill="rgb(0,0,0)" stroke="rgb(0,0,0)" stroke-width="1" opacity="0.792156862745098" d="M 720.5 57 L 719.5 59 L 718 58.5 L 720.5 57 Z " /><path fill="rgb(0,0,0)" stroke="rgb(0,0,0)" stroke-width="1" opacity="0.792156862745098" d="M 344.5 61 L 348.5 66 L 344.5 61 Z " /><path fill="rgb(0,0,0)" stroke="rgb(0,0,0)" stroke-width="1" opacity="0.792156862745098" d="M 59.5 63 L 61 63.5 L 59 64 L 57.5 67 L 58 65.5 L 59.5 63 Z " /><path fill="rgb(0,0,0)" stroke="rgb(0,0,0)" stroke-width="1" opacity="0.792156862745098" d="M 714.5 63 L 716 63.5 L 713 65.5 L 712.5 67 L 712 64 L 714.5 63 Z " /><path fill="rgb(0,0,0)" stroke="rgb(0,0,0)" stroke-width="1" opacity="0.792156862745098" d="M 1000.5 63 L 1004 65.5 L 1002.5 65 L 1000.5 63 Z " /><path fill="rgb(0,0,0)" stroke="rgb(0,0,0)" stroke-width="1" opacity="0.792156862745098" d="M 351.5 68 L 354.5 72 L 351.5 68 Z " /><path fill="rgb(0,0,0)" stroke="rgb(0,0,0)" stroke-width="1" opacity="0.792156862745098" d="M 54.5 69 L 52 72.5 L 44 81.5 L 45 84 L 42.5 85 L 44 82.5 L 43 81.5 L 51 73.5 L 54.5 69 Z " /><path fill="rgb(0,0,0)" stroke="rgb(0,0,0)" stroke-width="1" opacity="0.792156862745098" d="M 708.5 69 L 707 71.5 L 706.5 73 L 706 70 L 708.5 69 Z " /><path fill="rgb(0,0,0)" stroke="rgb(0,0,0)" stroke-width="1" opacity="0.792156862745098" d="M 1007.5 69 L 1009.5 72 L 1007 71 L 1007.5 69 Z " /><path fill="rgb(0,0,0)" stroke="rgb(0,0,0)" stroke-width="1" opacity="0.792156862745098" d="M 1011.5 75 L 1014.5 79 L 1011.5 75 Z " /><path fill="rgb(0,0,0)" stroke="rgb(0,0,0)" stroke-width="1" opacity="0.792156862745098" d="M 357.5 76 L 358.5 78 L 357.5 76 Z " /><path fill="rgb(0,0,0)" stroke="rgb(0,0,0)" stroke-width="1" opacity="0.792156862745098" d="M 703.5 76 L 702.5 78 Q 700.3 77.3 701 79.5 L 698.5 83 L 697 82.5 L 699 82 L 701.5 77 L 703.5 76 Z " /><path fill="rgb(0,0,0)" stroke="rgb(0,0,0)" stroke-width="1" opacity="0.792156862745098" d="M 362.5 82 L 369 89.5 L 365 86.5 L 362.5 82 Z " /><path fill="rgb(0,0,0)" stroke="rgb(0,0,0)" stroke-width="1" opacity="0.792156862745098" d="M 1017.5 82 L 1023 89.5 L 1020 87.5 L 1017.5 82 Z " /><path fill="rgb(0,0,0)" stroke="rgb(0,0,0)" stroke-width="1" opacity="0.792156862745098" d="M 696.5 84 L 692.5 89 L 696.5 84 Z " /><path fill="rgb(0,0,0)" stroke="rgb(0,0,0)" stroke-width="1" opacity="0.792156862745098" d="M 40.5 88 L 39.5 90 L 37 89.5 L 40.5 88 Z " /><path fill="rgb(0,0,0)" stroke="rgb(0,0,0)" stroke-width="1" opacity="0.792156862745098" d="M 691.5 90 L 690.5 92 L 691.5 90 Z " /><path fill="rgb(0,0,0)" stroke="rgb(0,0,0)" stroke-width="1" opacity="0.792156862745098" d="M 369.5 91 L 374 96.5 L 371 94.5 L 369.5 91 Z " /><path fill="rgb(0,0,0)" stroke="rgb(0,0,0)" stroke-width="1" opacity="0.792156862745098" d="M 1025.5 93 L 1028 98.5 L 1027 98.5 L 1025.5 93 Z " /><path fill="rgb(0,0,0)" stroke="rgb(0,0,0)" stroke-width="1" opacity="0.792156862745098" d="M 687 94 L 690 94.5 L 688 95 L 687.5 98 L 687 94 Z " /><path fill="rgb(0,0,0)" stroke="rgb(0,0,0)" stroke-width="1" opacity="0.792156862745098" d="M 34.5 97 L 33.5 99 L 34.5 97 Z " /><path fill="rgb(0,0,0)" stroke="rgb(0,0,0)" stroke-width="1" opacity="0.792156862745098" d="M 31.5 99 L 32 100.5 L 30 101.5 L 31.5 99 Z " /><path fill="rgb(0,0,0)" stroke="rgb(0,0,0)" stroke-width="1" opacity="0.792156862745098" d="M 374.5 100 L 380 107.5 L 378 106.5 L 374.5 100 Z " /><path fill="rgb(0,0,0)" stroke="rgb(0,0,0)" stroke-width="1" opacity="0.792156862745098" d="M 684.5 101 L 684 102.5 L 683.5 104 L 683 102.5 L 684.5 101 Z " /><path fill="rgb(0,0,0)" stroke="rgb(0,0,0)" stroke-width="1" opacity="0.792156862745098" d="M 1030.5 102 Q 1034.1 103.9 1034 109.5 L 1033 109.5 L 1030.5 102 Z " /><path fill="rgb(0,0,0)" stroke="rgb(0,0,0)" stroke-width="1" opacity="0.792156862745098" d="M 205.5 103 L 211 104.5 L 206.5 105 L 205.5 103 Z " /><path fill="rgb(0,0,0)" stroke="rgb(0,0,0)" stroke-width="1" opacity="0.792156862745098" d="M 855.5 103 L 861.5 104 L 864.5 103 L 870 105.5 L 868.5 105 L 862.5 104 L 858.5 105 L 855.5 104 Q 854 106.5 848.5 105 L 848.5 104 Q 854 105.5 855.5 103 Z " /><path fill="rgb(0,0,0)" stroke="rgb(0,0,0)" stroke-width="1" opacity="0.792156862745098" d="M 197.5 104 L 204 104.5 L 196.5 106 L 197.5 104 Z " /><path fill="rgb(0,0,0)" stroke="rgb(0,0,0)" stroke-width="1" opacity="0.792156862745098" d="M 212.5 104 L 217 104.5 L 212.5 105 L 212.5 104 Z " /><path fill="rgb(0,0,0)" stroke="rgb(0,0,0)" stroke-width="1" opacity="0.792156862745098" d="M 872.5 104 L 875 105.5 L 873.5 105 L 871.5 106 L 872.5 104 Z " /><path fill="rgb(0,0,0)" stroke="rgb(0,0,0)" stroke-width="1" opacity="0.792156862745098" d="M 681.5 105 L 682 109 L 680 108.5 L 681.5 105 Z " /><path fill="rgb(0,0,0)" stroke="rgb(0,0,0)" stroke-width="1" opacity="0.792156862745098" d="M 26.5 106 L 28 109 Q 25 107.8 26 111.5 L 24 112.5 L 25 108 L 27 107.5 L 26.5 106 Z " /><path fill="rgb(0,0,0)" stroke="rgb(0,0,0)" stroke-width="1" opacity="0.792156862745098" d="M 183.5 106 L 184 107.5 L 182.5 109 L 176.5 109 L 171 111 L 170.5 113 L 170 110 Q 174.5 110.8 176.5 108 L 183 108 L 183.5 106 Z " /><path fill="rgb(0,0,0)" stroke="rgb(0,0,0)" stroke-width="1" opacity="0.792156862745098" d="M 227.5 107 L 231.5 109 L 233.5 108 L 239 111.5 L 237.5 111 L 232.5 109 L 230.5 109 Q 226.7 109.5 227.5 107 Z " /><path fill="rgb(0,0,0)" stroke="rgb(0,0,0)" stroke-width="1" opacity="0.792156862745098" d="M 833.5 107 L 832.5 109 Q 829.6 111.6 823.5 111 L 823.5 110 Q 830.7 110.7 833.5 107 Z " /><path fill="rgb(0,0,0)" stroke="rgb(0,0,0)" stroke-width="1" opacity="0.792156862745098" d="M 885.5 108 L 892 110.5 L 890.5 111 L 885.5 109 L 885.5 108 Z " /><path fill="rgb(0,0,0)" stroke="rgb(0,0,0)" stroke-width="1" opacity="0.792156862745098" d="M 893.5 110 L 894.5 112 L 893.5 110 Z " /><path fill="rgb(0,0,0)" stroke="rgb(0,0,0)" stroke-width="1" opacity="0.792156862745098" d="M 164.5 113 L 165 114.5 L 159.5 118 L 161.5 115 Q 165 116 164.5 113 Z " /><path fill="rgb(0,0,0)" stroke="rgb(0,0,0)" stroke-width="1" opacity="0.792156862745098" d="M 382.5 113 Q 385.1 112.2 384 115.5 L 386 119.5 L 384 118.5 L 382.5 113 Z " /><path fill="rgb(0,0,0)" stroke="rgb(0,0,0)" stroke-width="1" opacity="0.792156862745098" d="M 247.5 114 L 252 117.5 L 250.5 117 L 247.5 114 Z " /><path fill="rgb(0,0,0)" stroke="rgb(0,0,0)" stroke-width="1" opacity="0.792156862745098" d="M 677.5 114 L 676 116.5 L 673.5 122 L 674 120.5 Q 674.3 115.8 677.5 114 Z " /><path fill="rgb(0,0,0)" stroke="rgb(0,0,0)" stroke-width="1" opacity="0.792156862745098" d="M 817.5 114 L 815.5 117 L 812 116.5 Q 816.3 116.8 817.5 114 Z " /><path fill="rgb(0,0,0)" stroke="rgb(0,0,0)" stroke-width="1" opacity="0.792156862745098" d="M 901.5 114 L 907 118.5 L 904.5 117 L 901.5 114 Z " /><path fill="rgb(0,0,0)" stroke="rgb(0,0,0)" stroke-width="1" opacity="0.792156862745098" d="M 1037.5 115 L 1041 120.5 L 1039 119.5 L 1037.5 115 Z " /><path fill="rgb(0,0,0)" stroke="rgb(0,0,0)" stroke-width="1" opacity="0.792156862745098" d="M 19 119 L 22 119.5 L 20 120 L 19.5 123 L 19 119 Z " /><path fill="rgb(0,0,0)" stroke="rgb(0,0,0)" stroke-width="1" opacity="0.792156862745098" d="M 808.5 119 L 806.5 122 L 803 123 L 802.5 125 L 802 123.5 L 808.5 119 Z " /><path fill="rgb(0,0,0)" stroke="rgb(0,0,0)" stroke-width="1" opacity="0.792156862745098" d="M 908.5 119 Q 910 122.5 911.5 120 L 916.5 123 L 937 143.5 L 916.5 124 L 911.5 121 L 910.5 122 L 908.5 119 Z " /><path fill="rgb(0,0,0)" stroke="rgb(0,0,0)" stroke-width="1" opacity="0.792156862745098" d="M 151.5 121 L 153 121.5 L 149.5 124 L 151.5 121 Z " /><path fill="rgb(0,0,0)" stroke="rgb(0,0,0)" stroke-width="1" opacity="0.792156862745098" d="M 257.5 121 L 261 123.5 L 258.5 122 L 257.5 121 Z " /><path fill="rgb(0,0,0)" stroke="rgb(0,0,0)" stroke-width="1" opacity="0.792156862745098" d="M 18.5 124 L 17.5 126 L 18.5 124 Z " /><path fill="rgb(0,0,0)" stroke="rgb(0,0,0)" stroke-width="1" opacity="0.792156862745098" d="M 146.5 125 L 136.5 136 Q 134.3 135.3 135 137.5 L 130 141.5 L 135.5 135 L 146.5 125 Z " /><path fill="rgb(0,0,0)" stroke="rgb(0,0,0)" stroke-width="1" opacity="0.792156862745098" d="M 263.5 125 L 286 148.5 L 282 145.5 L 263.5 125 Z " /><path fill="rgb(0,0,0)" stroke="rgb(0,0,0)" stroke-width="1" opacity="0.792156862745098" d="M 388.5 127 Q 391.8 128.7 391 134.5 L 390 134.5 Q 390.5 128.7 388.5 127 Z " /><path fill="rgb(0,0,0)" stroke="rgb(0,0,0)" stroke-width="1" opacity="0.792156862745098" d="M 671.5 127 L 671 128.5 L 670.5 130 L 670 128.5 L 671.5 127 Z " /><path fill="rgb(0,0,0)" stroke="rgb(0,0,0)" stroke-width="1" opacity="0.792156862745098" d="M 796.5 128 L 798 128.5 L 794.5 131 L 796.5 128 Z " /><path fill="rgb(0,0,0)" stroke="rgb(0,0,0)" stroke-width="1" opacity="0.792156862745098" d="M 1043.5 128 L 1046 134.5 L 1045 134.5 L 1043.5 128 Z " /><path fill="rgb(0,0,0)" stroke="rgb(0,0,0)" stroke-width="1" opacity="0.792156862745098" d="M 668.5 130 L 670 132.5 L 668.5 135 L 668 132.5 L 668.5 130 Z " /><path fill="rgb(0,0,0)" stroke="rgb(0,0,0)" stroke-width="1" opacity="0.792156862745098" d="M 15.5 133 L 14 135.5 L 12.5 139 L 13 137.5 Q 12.5 133.5 15.5 133 Z " /><path fill="rgb(0,0,0)" stroke="rgb(0,0,0)" stroke-width="1" opacity="0.792156862745098" d="M 791.5 133 L 790 135.5 L 789.5 137 L 789 134 L 791.5 133 Z " /><path fill="rgb(0,0,0)" stroke="rgb(0,0,0)" stroke-width="1" opacity="0.792156862745098" d="M 1046.5 136 L 1048 139.5 L 1046 138.5 L 1046.5 136 Z " /><path fill="rgb(0,0,0)" stroke="rgb(0,0,0)" stroke-width="1" opacity="0.792156862745098" d="M 784.5 140 L 786 140.5 L 782.5 143 L 784.5 140 Z " /><path fill="rgb(0,0,0)" stroke="rgb(0,0,0)" stroke-width="1" opacity="0.792156862745098" d="M 394.5 142 L 398 151.5 L 396 150.5 L 394.5 142 Z " /><path fill="rgb(0,0,0)" stroke="rgb(0,0,0)" stroke-width="1" opacity="0.792156862745098" d="M 127.5 144 L 127 145.5 L 124.5 149 L 126 146.5 L 127.5 144 Z " /><path fill="rgb(0,0,0)" stroke="rgb(0,0,0)" stroke-width="1" opacity="0.792156862745098" d="M 663 144 L 665 144.5 L 662.5 155 L 662 149.5 L 663 144 Z " /><path fill="rgb(0,0,0)" stroke="rgb(0,0,0)" stroke-width="1" opacity="0.792156862745098" d="M 937.5 145 L 939.5 148 L 937.5 145 Z " /><path fill="rgb(0,0,0)" stroke="rgb(0,0,0)" stroke-width="1" opacity="0.792156862745098" d="M 1049.5 146 L 1053 155.5 L 1053 160.5 L 1052 160.5 L 1052 155.5 L 1049.5 146 Z " /><path fill="rgb(0,0,0)" stroke="rgb(0,0,0)" stroke-width="1" opacity="0.792156862745098" d="M 778.5 147 L 778 148.5 L 775.5 152 L 777 149.5 L 778.5 147 Z " /><path fill="rgb(0,0,0)" stroke="rgb(0,0,0)" stroke-width="1" opacity="0.792156862745098" d="M 8.5 149 L 8.5 152 Q 5.5 150.5 8.5 149 Z " /><path fill="rgb(0,0,0)" stroke="rgb(0,0,0)" stroke-width="1" opacity="0.792156862745098" d="M 940.5 151 L 946 158.5 L 944 157.5 L 940.5 151 Z " /><path fill="rgb(0,0,0)" stroke="rgb(0,0,0)" stroke-width="1" opacity="0.792156862745098" d="M 121.5 152 L 123 152.5 L 119.5 154 L 119.5 153 L 121.5 152 Z " /><path fill="rgb(0,0,0)" stroke="rgb(0,0,0)" stroke-width="1" opacity="0.792156862745098" d="M 288.5 152 L 290 155.5 L 288 154.5 L 288.5 152 Z " /><path fill="rgb(0,0,0)" stroke="rgb(0,0,0)" stroke-width="1" opacity="0.792156862745098" d="M 8.5 153 L 8 154.5 Q 9 161 5.5 163 L 6 161.5 L 7 154.5 L 8.5 153 Z " /><path fill="rgb(0,0,0)" stroke="rgb(0,0,0)" stroke-width="1" opacity="0.792156862745098" d="M 397.5 153 L 399 156.5 L 397 155.5 L 397.5 153 Z " /><path fill="rgb(0,0,0)" stroke="rgb(0,0,0)" stroke-width="1" opacity="0.792156862745098" d="M 774.5 153 L 773.5 155 L 774.5 153 Z " /><path fill="rgb(0,0,0)" stroke="rgb(0,0,0)" stroke-width="1" opacity="0.792156862745098" d="M 771.5 157 L 772 159.5 L 765.5 169 L 765 167.5 Q 770.1 164.1 771.5 157 Z " /><path fill="rgb(0,0,0)" stroke="rgb(0,0,0)" stroke-width="1" opacity="0.792156862745098" d="M 117.5 158 L 117 159.5 L 114.5 168 L 114 164.5 L 117.5 158 Z " /><path fill="rgb(0,0,0)" stroke="rgb(0,0,0)" stroke-width="1" opacity="0.792156862745098" d="M 294.5 164 L 297 169.5 L 295 168.5 L 294.5 164 Z " /><path fill="rgb(0,0,0)" stroke="rgb(0,0,0)" stroke-width="1" opacity="0.792156862745098" d="M 948.5 165 Q 951.1 164.2 950 167.5 L 952 170.5 L 950 169.5 L 948.5 165 Z " /><path fill="rgb(0,0,0)" stroke="rgb(0,0,0)" stroke-width="1" opacity="0.792156862745098" d="M 400.5 166 L 402 167.5 L 403 174.5 L 403 176.5 L 402.5 185 L 401 175.5 L 402 172.5 L 400.5 166 Z " /><path fill="rgb(0,0,0)" stroke="rgb(0,0,0)" stroke-width="1" opacity="0.792156862745098" d="M 657.5 168 L 658 176.5 L 656 187.5 L 655.5 219 L 655 187.5 L 656 186.5 L 656 176.5 L 657.5 168 Z " /><path fill="rgb(0,0,0)" stroke="rgb(0,0,0)" stroke-width="1" opacity="0.792156862745098" d="M 764.5 170 L 765 174.5 L 762.5 178 L 763 176.5 L 764.5 170 Z " /><path fill="rgb(0,0,0)" stroke="rgb(0,0,0)" stroke-width="1" opacity="0.792156862745098" d="M 3.5 172 L 3 173.5 L 2.5 175 L 2 173.5 L 3.5 172 Z " /><path fill="rgb(0,0,0)" stroke="rgb(0,0,0)" stroke-width="1" opacity="0.792156862745098" d="M 110.5 172 L 110 173.5 L 108 181.5 Q 110.8 183.2 106.5 185 L 107 183.5 L 108 176.5 L 110.5 172 Z " /><path fill="rgb(0,0,0)" stroke="rgb(0,0,0)" stroke-width="1" opacity="0.792156862745098" d="M 1056.5 174 L 1057 176.5 L 1056 176.5 L 1056.5 174 Z " /><path fill="rgb(0,0,0)" stroke="rgb(0,0,0)" stroke-width="1" opacity="0.792156862745098" d="M 3.5 178 L 3 179.5 L 2.5 182 L 2 179.5 L 3.5 178 Z " /><path fill="rgb(0,0,0)" stroke="rgb(0,0,0)" stroke-width="1" opacity="0.792156862745098" d="M 299.5 178 Q 301.8 177.3 301 179.5 L 301 181.5 L 302 185.5 L 302 187.5 L 303 191.5 L 301 192 L 300 186.5 L 300 184.5 L 299 180.5 L 299.5 178 Z " /><path fill="rgb(0,0,0)" stroke="rgb(0,0,0)" stroke-width="1" opacity="0.792156862745098" d="M 1056.5 178 L 1057.5 180 L 1056.5 178 Z " /><path fill="rgb(0,0,0)" stroke="rgb(0,0,0)" stroke-width="1" opacity="0.792156862745098" d="M 955.5 182 L 957 191.5 L 956 193.5 L 957 194.5 L 957 209.5 Q 954.3 211.3 956 217.5 L 954.5 219 L 955 217.5 L 956 194.5 L 955 192.5 L 956 188.5 Q 953.4 186.9 955.5 182 Z " /><path fill="rgb(0,0,0)" stroke="rgb(0,0,0)" stroke-width="1" opacity="0.792156862745098" d="M 1056.5 182 L 1058 182.5 L 1058 191.5 L 1057 191.5 Q 1057.7 184 1056.5 182 Z " /><path fill="rgb(0,0,0)" stroke="rgb(0,0,0)" stroke-width="1" opacity="0.792156862745098" d="M 2.5 183 L 2 184.5 L 3 189.5 L 2 190.5 L 1.5 199 L 1 190.5 L 2 188.5 L 1 184.5 L 2.5 183 Z " /><path fill="rgb(0,0,0)" stroke="rgb(0,0,0)" stroke-width="1" opacity="0.792156862745098" d="M 760.5 184 L 760 185.5 L 759.5 189 L 759 185.5 L 760.5 184 Z " /><path fill="rgb(0,0,0)" stroke="rgb(0,0,0)" stroke-width="1" opacity="0.792156862745098" d="M 403.5 186 L 404 197.5 L 403 197.5 L 403.5 186 Z " /><path fill="rgb(0,0,0)" stroke="rgb(0,0,0)" stroke-width="1" opacity="0.792156862745098" d="M 758 190 L 760 190.5 L 759 191.5 Q 760.3 199.7 758 204.5 L 759 209.5 L 758 212.5 L 759 213.5 L 759 221.5 L 758 221.5 L 757 209.5 L 758 205.5 L 757 202.5 L 758 201.5 L 758 190 Z " /><path fill="rgb(0,0,0)" stroke="rgb(0,0,0)" stroke-width="1" opacity="0.792156862745098" d="M 1057.5 195 L 1059 201.5 L 1057 202 L 1057.5 195 Z " /><path fill="rgb(0,0,0)" stroke="rgb(0,0,0)" stroke-width="1" opacity="0.792156862745098" d="M 104.5 196 L 104 197.5 L 105 201.5 L 103 200.5 Q 102.3 196.8 104.5 196 Z " /><path fill="rgb(0,0,0)" stroke="rgb(0,0,0)" stroke-width="1" opacity="0.792156862745098" d="M 403.5 200 L 405 206.5 L 403 205.5 L 403.5 200 Z " /><path fill="rgb(0,0,0)" stroke="rgb(0,0,0)" stroke-width="1" opacity="0.792156862745098" d="M 1.5 201 L 2 221.5 L 3 222.5 L 1 223 L 1.5 201 Z " /><path fill="rgb(0,0,0)" stroke="rgb(0,0,0)" stroke-width="1" opacity="0.792156862745098" d="M 104.5 204 L 104 205.5 L 103.5 211 L 103 205.5 L 104.5 204 Z " /><path fill="rgb(0,0,0)" stroke="rgb(0,0,0)" stroke-width="1" opacity="0.792156862745098" d="M 1057.5 206 L 1058 209.5 L 1057 209.5 L 1057.5 206 Z " /><path fill="rgb(0,0,0)" stroke="rgb(0,0,0)" stroke-width="1" opacity="0.792156862745098" d="M 302.5 207 L 302.5 210 Q 299.5 208.5 302.5 207 Z " /><path fill="rgb(0,0,0)" stroke="rgb(0,0,0)" stroke-width="1" opacity="0.792156862745098" d="M 404.5 208 L 404 209.5 L 404 217.5 L 403 218.5 L 404 220.5 L 403 220.5 L 402 218.5 L 403 217.5 L 403 209.5 L 404.5 208 Z " /><path fill="rgb(0,0,0)" stroke="rgb(0,0,0)" stroke-width="1" opacity="0.792156862745098" d="M 301.5 212 L 302 218.5 L 300.5 222 L 300 219.5 L 301.5 212 Z " /><path fill="rgb(0,0,0)" stroke="rgb(0,0,0)" stroke-width="1" opacity="0.792156862745098" d="M 1057.5 212 L 1058 223.5 L 1056 224.5 L 1057 223.5 L 1057.5 212 Z " /><path fill="rgb(0,0,0)" stroke="rgb(0,0,0)" stroke-width="1" opacity="0.792156862745098" d="M 103.5 213 L 104 215.5 L 103 215.5 L 103.5 213 Z " /><path fill="rgb(0,0,0)" stroke="rgb(0,0,0)" stroke-width="1" opacity="0.792156862745098" d="M 403.5 222 L 403 223.5 L 402 230.5 L 402 232.5 Q 403.5 238.5 400.5 240 L 401 238.5 Q 399.5 233 402 231.5 L 401 228.5 L 403.5 222 Z " /><path fill="rgb(0,0,0)" stroke="rgb(0,0,0)" stroke-width="1" opacity="0.792156862745098" d="M 299.5 223 L 300 225.5 L 298 226.5 L 299.5 223 Z " /><path fill="rgb(0,0,0)" stroke="rgb(0,0,0)" stroke-width="1" opacity="0.792156862745098" d="M 759.5 223 L 761 227.5 L 759 226.5 L 759.5 223 Z " /><path fill="rgb(0,0,0)" stroke="rgb(0,0,0)" stroke-width="1" opacity="0.792156862745098" d="M 2.5 224 L 3 234.5 L 4 235.5 L 2 234.5 L 2.5 224 Z " /><path fill="rgb(0,0,0)" stroke="rgb(0,0,0)" stroke-width="1" opacity="0.792156862745098" d="M 656.5 226 L 659 240.5 L 657 239.5 L 656.5 226 Z " /><path fill="rgb(0,0,0)" stroke="rgb(0,0,0)" stroke-width="1" opacity="0.792156862745098" d="M 1056.5 226 L 1057 231.5 L 1055 232.5 L 1056.5 226 Z " /><path fill="rgb(0,0,0)" stroke="rgb(0,0,0)" stroke-width="1" opacity="0.792156862745098" d="M 106.5 228 L 107.5 230 L 106.5 228 Z " /><path fill="rgb(0,0,0)" stroke="rgb(0,0,0)" stroke-width="1" opacity="0.792156862745098" d="M 952.5 228 L 951 230.5 Q 951 237 947.5 240 L 947 238.5 L 949 236.5 L 950 230.5 L 952.5 228 Z " /><path fill="rgb(0,0,0)" stroke="rgb(0,0,0)" stroke-width="1" opacity="0.792156862745098" d="M 107.5 232 L 111 239.5 L 109 240 L 107.5 232 Z " /><path fill="rgb(0,0,0)" stroke="rgb(0,0,0)" stroke-width="1" opacity="0.792156862745098" d="M 296.5 233 L 296 234.5 L 293.5 239 L 294 237.5 L 296.5 233 Z " /><path fill="rgb(0,0,0)" stroke="rgb(0,0,0)" stroke-width="1" opacity="0.792156862745098" d="M 762.5 234 L 767 244.5 L 765 243.5 L 762.5 234 Z " /><path fill="rgb(0,0,0)" stroke="rgb(0,0,0)" stroke-width="1" opacity="0.792156862745098" d="M 945.5 244 L 944 246.5 L 943.5 248 L 943 245 L 945.5 244 Z " /><path fill="rgb(0,0,0)" stroke="rgb(0,0,0)" stroke-width="1" opacity="0.792156862745098" d="M 1052.5 245 L 1053 249.5 L 1052 254.5 L 1049.5 258 L 1050 256.5 L 1052.5 245 Z " /><path fill="rgb(0,0,0)" stroke="rgb(0,0,0)" stroke-width="1" opacity="0.792156862745098" d="M 5.5 246 L 7 247.5 L 8 256.5 L 10 259.5 L 8 258.5 L 5.5 246 Z " /><path fill="rgb(0,0,0)" stroke="rgb(0,0,0)" stroke-width="1" opacity="0.792156862745098" d="M 290.5 246 L 289 248.5 L 286.5 253 L 287 251.5 L 290.5 246 Z " /><path fill="rgb(0,0,0)" stroke="rgb(0,0,0)" stroke-width="1" opacity="0.792156862745098" d="M 113.5 247 L 117 252.5 L 115 253 L 113.5 247 Z " /><path fill="rgb(0,0,0)" stroke="rgb(0,0,0)" stroke-width="1" opacity="0.792156862745098" d="M 398.5 248 L 398 249.5 L 397.5 251 L 397 249.5 L 398.5 248 Z " /><path fill="rgb(0,0,0)" stroke="rgb(0,0,0)" stroke-width="1" opacity="0.792156862745098" d="M 769.5 249 L 771 252.5 L 770 252.5 L 769.5 249 Z " /><path fill="rgb(0,0,0)" stroke="rgb(0,0,0)" stroke-width="1" opacity="0.792156862745098" d="M 942.5 249 L 941.5 251 L 940 250.5 L 942.5 249 Z " /><path fill="rgb(0,0,0)" stroke="rgb(0,0,0)" stroke-width="1" opacity="0.792156862745098" d="M 396 252 L 398 252.5 L 396 259.5 L 396.5 261 L 394 260.5 Q 397.2 258 396 252 Z " /><path fill="rgb(0,0,0)" stroke="rgb(0,0,0)" stroke-width="1" opacity="0.792156862745098" d="M 660.5 252 L 661.5 254 L 660.5 252 Z " /><path fill="rgb(0,0,0)" stroke="rgb(0,0,0)" stroke-width="1" opacity="0.792156862745098" d="M 939.5 253 L 936 257.5 L 937 259.5 L 935 258.5 L 939.5 253 Z " /><path fill="rgb(0,0,0)" stroke="rgb(0,0,0)" stroke-width="1" opacity="0.792156862745098" d="M 661.5 255 L 665 263.5 L 663 262.5 L 661.5 255 Z " /><path fill="rgb(0,0,0)" stroke="rgb(0,0,0)" stroke-width="1" opacity="0.792156862745098" d="M 119.5 257 L 139 278.5 L 126 266.5 L 119.5 257 Z " /><path fill="rgb(0,0,0)" stroke="rgb(0,0,0)" stroke-width="1" opacity="0.792156862745098" d="M 283.5 257 L 282.5 259 L 283.5 257 Z " /><path fill="rgb(0,0,0)" stroke="rgb(0,0,0)" stroke-width="1" opacity="0.792156862745098" d="M 773.5 257 L 774.5 259 L 773.5 257 Z " /><path fill="rgb(0,0,0)" stroke="rgb(0,0,0)" stroke-width="1" opacity="0.792156862745098" d="M 775.5 260 L 779.5 265 L 775.5 260 Z " /><path fill="rgb(0,0,0)" stroke="rgb(0,0,0)" stroke-width="1" opacity="0.792156862745098" d="M 933.5 260 L 933 261.5 L 933 264 Q 930.3 262.9 931 265.5 L 930 265.5 L 930 263 Q 932.7 264.1 932 261.5 L 933.5 260 Z " /><path fill="rgb(0,0,0)" stroke="rgb(0,0,0)" stroke-width="1" opacity="0.792156862745098" d="M 278.5 263 L 277.5 265 Q 275.3 264.3 276 266.5 L 275 266.5 Q 273.8 262.8 277.5 264 L 278.5 263 Z " /><path fill="rgb(0,0,0)" stroke="rgb(0,0,0)" stroke-width="1" opacity="0.792156862745098" d="M 535.5 265 L 964 692.5 L 962.5 696 L 957 700.5 L 955.5 703 L 951 706.5 L 949.5 709 L 945 712.5 L 943.5 715 L 938 719.5 Q 938.8 721.8 936.5 721 L 930.5 728 L 926 731.5 Q 926.8 733.8 924.5 733 L 920 739 L 918.5 739 L 894 763.5 Q 894.8 765.8 892.5 765 L 883 774.5 L 883 776 L 880.5 776 L 535.5 432 L 191.5 776 L 189 776 L 189 774.5 L 108 692.5 L 535.5 265 Z M 536 266 L 109 693 L 191 775 L 536 431 L 882 775 L 963 693 L 536 266 Z " /><path fill="rgb(0,0,0)" stroke="rgb(0,0,0)" stroke-width="1" opacity="0.792156862745098" d="M 1047.5 266 L 1047 267.5 L 1043.5 276 L 1044 274.5 Q 1043.4 267.9 1047.5 266 Z " /><path fill="rgb(0,0,0)" stroke="rgb(0,0,0)" stroke-width="1" opacity="0.792156862745098" d="M 781.5 267 L 785.5 272 L 781.5 267 Z " /><path fill="rgb(0,0,0)" stroke="rgb(0,0,0)" stroke-width="1" opacity="0.792156862745098" d="M 272.5 269 L 269.5 273 L 272.5 269 Z " /><path fill="rgb(0,0,0)" stroke="rgb(0,0,0)" stroke-width="1" opacity="0.792156862745098" d="M 925.5 269 L 927 269.5 L 924.5 271 L 925.5 269 Z " /><path fill="rgb(0,0,0)" stroke="rgb(0,0,0)" stroke-width="1" opacity="0.792156862745098" d="M 12.5 271 Q 15.5 270.1 14 274.5 L 16 278.5 L 14 277.5 L 12.5 271 Z " /><path fill="rgb(0,0,0)" stroke="rgb(0,0,0)" stroke-width="1" opacity="0.792156862745098" d="M 390 271 L 392 271.5 L 391 275.5 L 388.5 278 L 390 275.5 L 390 271 Z " /><path fill="rgb(0,0,0)" stroke="rgb(0,0,0)" stroke-width="1" opacity="0.792156862745098" d="M 667.5 273 L 672 283.5 L 670 282.5 L 667.5 273 Z " /><path fill="rgb(0,0,0)" stroke="rgb(0,0,0)" stroke-width="1" opacity="0.792156862745098" d="M 788.5 274 L 791.5 278 L 788.5 274 Z " /><path fill="rgb(0,0,0)" stroke="rgb(0,0,0)" stroke-width="1" opacity="0.792156862745098" d="M 265.5 275 L 267 275.5 L 263.5 278 L 265.5 275 Z " /><path fill="rgb(0,0,0)" stroke="rgb(0,0,0)" stroke-width="1" opacity="0.792156862745098" d="M 920.5 275 L 919.5 277 L 916.5 278 L 917.5 276 L 920.5 275 Z " /><path fill="rgb(0,0,0)" stroke="rgb(0,0,0)" stroke-width="1" opacity="0.792156862745098" d="M 1042.5 278 L 1040.5 281 L 1042.5 278 Z " /><path fill="rgb(0,0,0)" stroke="rgb(0,0,0)" stroke-width="1" opacity="0.792156862745098" d="M 140.5 279 L 147 284.5 L 145.5 284 L 140.5 279 Z " /><path fill="rgb(0,0,0)" stroke="rgb(0,0,0)" stroke-width="1" opacity="0.792156862745098" d="M 794.5 279 L 803 286.5 L 799.5 284 L 794.5 279 Z " /><path fill="rgb(0,0,0)" stroke="rgb(0,0,0)" stroke-width="1" opacity="0.792156862745098" d="M 912.5 280 L 909.5 284 Q 906.2 282.9 907 285.5 L 905 286.5 L 907.5 283 Q 912 283.5 912.5 280 Z " /><path fill="rgb(0,0,0)" stroke="rgb(0,0,0)" stroke-width="1" opacity="0.792156862745098" d="M 258.5 282 L 257.5 284 L 255 283.5 L 258.5 282 Z " /><path fill="rgb(0,0,0)" stroke="rgb(0,0,0)" stroke-width="1" opacity="0.792156862745098" d="M 1040.5 283 L 1039 285.5 L 1037.5 288 L 1038 286.5 Q 1036.9 283.2 1039.5 284 L 1040.5 283 Z " /><path fill="rgb(0,0,0)" stroke="rgb(0,0,0)" stroke-width="1" opacity="0.792156862745098" d="M 18.5 285 L 22 291.5 L 20 292 L 18.5 285 Z " /><path fill="rgb(0,0,0)" stroke="rgb(0,0,0)" stroke-width="1" opacity="0.792156862745098" d="M 385.5 285 L 385 286.5 L 382.5 291 L 383 289.5 L 385.5 285 Z " /><path fill="rgb(0,0,0)" stroke="rgb(0,0,0)" stroke-width="1" opacity="0.792156862745098" d="M 251.5 286 L 249.5 289 L 244.5 292 L 246.5 289 L 251.5 286 Z " /><path fill="rgb(0,0,0)" stroke="rgb(0,0,0)" stroke-width="1" opacity="0.792156862745098" d="M 151.5 288 L 157 291.5 L 154.5 290 Q 150.7 290.5 151.5 288 Z " /><path fill="rgb(0,0,0)" stroke="rgb(0,0,0)" stroke-width="1" opacity="0.792156862745098" d="M 674.5 288 L 678 295.5 L 676 294.5 Q 673 292 674.5 288 Z " /><path fill="rgb(0,0,0)" stroke="rgb(0,0,0)" stroke-width="1" opacity="0.792156862745098" d="M 806.5 288 L 810 289.5 L 808.5 289 Q 805.5 289.5 806.5 288 Z " /><path fill="rgb(0,0,0)" stroke="rgb(0,0,0)" stroke-width="1" opacity="0.792156862745098" d="M 901.5 288 L 900.5 290 L 899 289.5 L 901.5 288 Z " /><path fill="rgb(0,0,0)" stroke="rgb(0,0,0)" stroke-width="1" opacity="0.792156862745098" d="M 1037.5 289 L 1036.5 291 L 1037.5 289 Z " /><path fill="rgb(0,0,0)" stroke="rgb(0,0,0)" stroke-width="1" opacity="0.792156862745098" d="M 812.5 291 L 813.5 293 L 812.5 291 Z " /><path fill="rgb(0,0,0)" stroke="rgb(0,0,0)" stroke-width="1" opacity="0.792156862745098" d="M 239.5 292 L 237.5 295 L 235 294.5 L 239.5 292 Z " /><path fill="rgb(0,0,0)" stroke="rgb(0,0,0)" stroke-width="1" opacity="0.792156862745098" d="M 815.5 293 L 821.5 296 L 823.5 296 L 826 297.5 L 824.5 297 L 822.5 296 L 820.5 297 Q 815.9 295.8 815.5 293 Z " /><path fill="rgb(0,0,0)" stroke="rgb(0,0,0)" stroke-width="1" opacity="0.792156862745098" d="M 162.5 294 L 170 297.5 L 168.5 297 L 162.5 295 L 162.5 294 Z " /><path fill="rgb(0,0,0)" stroke="rgb(0,0,0)" stroke-width="1" opacity="0.792156862745098" d="M 889.5 294 L 891 294.5 L 885.5 296 L 883.5 298 L 885.5 295 L 889.5 294 Z " /><path fill="rgb(0,0,0)" stroke="rgb(0,0,0)" stroke-width="1" opacity="0.792156862745098" d="M 1033.5 294 L 1035 297 L 1033 297.5 L 1034 298.5 L 1030.5 302 L 1033 298.5 L 1032 297.5 Q 1031.3 295.3 1033.5 296 L 1033.5 294 Z " /><path fill="rgb(0,0,0)" stroke="rgb(0,0,0)" stroke-width="1" opacity="0.792156862745098" d="M 23.5 296 L 28 302.5 L 26 301.5 L 23.5 296 Z " /><path fill="rgb(0,0,0)" stroke="rgb(0,0,0)" stroke-width="1" opacity="0.792156862745098" d="M 228.5 296 L 235 296.5 L 227.5 298 L 228.5 296 Z " /><path fill="rgb(0,0,0)" stroke="rgb(0,0,0)" stroke-width="1" opacity="0.792156862745098" d="M 377 297 L 380 297.5 L 378 298.5 L 378.5 300 L 377 297 Z " /><path fill="rgb(0,0,0)" stroke="rgb(0,0,0)" stroke-width="1" opacity="0.792156862745098" d="M 177.5 299 L 183.5 301 L 185.5 301 L 192.5 302 L 194.5 302 L 208.5 302 L 209.5 301 L 222.5 300 L 222.5 301 L 216.5 301 L 208.5 303 L 194.5 303 L 192.5 303 L 184.5 301 L 182.5 302 L 178.5 301 L 177.5 299 Z " /><path fill="rgb(0,0,0)" stroke="rgb(0,0,0)" stroke-width="1" opacity="0.792156862745098" d="M 832.5 299 L 833.5 301 L 832.5 299 Z " /><path fill="rgb(0,0,0)" stroke="rgb(0,0,0)" stroke-width="1" opacity="0.792156862745098" d="M 873.5 299 L 871.5 302 L 866.5 301 L 856.5 303 L 852.5 302 L 848.5 303 L 835 300.5 L 839.5 300 L 840.5 301 L 851.5 302 L 855.5 301 L 859.5 302 L 868.5 300 L 871.5 301 L 873.5 299 Z " /><path fill="rgb(0,0,0)" stroke="rgb(0,0,0)" stroke-width="1" opacity="0.792156862745098" d="M 376.5 300 L 377 302.5 L 374 304.5 L 376.5 300 Z " /><path fill="rgb(0,0,0)" stroke="rgb(0,0,0)" stroke-width="1" opacity="0.792156862745098" d="M 680.5 302 Q 683.1 301.2 682 304.5 L 683.5 307 L 680.5 302 Z " /><path fill="rgb(0,0,0)" stroke="rgb(0,0,0)" stroke-width="1" opacity="0.792156862745098" d="M 1028.5 304 L 1030 304.5 L 1025.5 308 L 1028.5 304 Z " /><path fill="rgb(0,0,0)" stroke="rgb(0,0,0)" stroke-width="1" opacity="0.792156862745098" d="M 371 308 L 374 308.5 L 372 309.5 L 372.5 311 Q 370.3 310.3 371 312.5 L 367.5 315 L 367.5 314 L 370 312.5 L 371 308 Z " /><path fill="rgb(0,0,0)" stroke="rgb(0,0,0)" stroke-width="1" opacity="0.792156862745098" d="M 684.5 308 L 690 316.5 L 688 317 L 688 313.5 L 684.5 308 Z " /><path fill="rgb(0,0,0)" stroke="rgb(0,0,0)" stroke-width="1" opacity="0.792156862745098" d="M 30.5 309 L 35 314.5 L 32 312.5 L 30.5 309 Z " /><path fill="rgb(0,0,0)" stroke="rgb(0,0,0)" stroke-width="1" opacity="0.792156862745098" d="M 1025.5 309 L 1024.5 311 L 1023 310.5 L 1025.5 309 Z " /><path fill="rgb(0,0,0)" stroke="rgb(0,0,0)" stroke-width="1" opacity="0.792156862745098" d="M 1022.5 314 L 1020 317.5 L 1019.5 320 L 1019 316 L 1022.5 314 Z " /><path fill="rgb(0,0,0)" stroke="rgb(0,0,0)" stroke-width="1" opacity="0.792156862745098" d="M 366.5 316 L 365 318.5 L 360 324.5 L 360 328 L 356.5 329 L 357.5 327 Q 360.1 327.8 359 324.5 L 366.5 316 Z " /><path fill="rgb(0,0,0)" stroke="rgb(0,0,0)" stroke-width="1" opacity="0.792156862745098" d="M 38.5 319 L 41 322.5 L 38 320.5 L 38.5 319 Z " /><path fill="rgb(0,0,0)" stroke="rgb(0,0,0)" stroke-width="1" opacity="0.792156862745098" d="M 1017.5 320 L 1016 322.5 L 1014.5 326 L 1014 324.5 L 1017.5 320 Z " /><path fill="rgb(0,0,0)" stroke="rgb(0,0,0)" stroke-width="1" opacity="0.792156862745098" d="M 692.5 321 Q 709 342.5 729.5 360 L 740 368.5 L 736.5 366 L 729.5 361 L 700 331.5 L 692.5 321 Z " /><path fill="rgb(0,0,0)" stroke="rgb(0,0,0)" stroke-width="1" opacity="0.792156862745098" d="M 43.5 327 L 46 328 L 45.5 330 L 43.5 327 Z " /><path fill="rgb(0,0,0)" stroke="rgb(0,0,0)" stroke-width="1" opacity="0.792156862745098" d="M 1011.5 328 L 1010.5 330 Q 1008.3 329.3 1009 331.5 L 1005 334.5 L 1009.5 329 L 1011.5 328 Z " /><path fill="rgb(0,0,0)" stroke="rgb(0,0,0)" stroke-width="1" opacity="0.792156862745098" d="M 352.5 332 L 353 335 L 350.5 336 L 352 333.5 L 352.5 332 Z " /><path fill="rgb(0,0,0)" stroke="rgb(0,0,0)" stroke-width="1" opacity="0.792156862745098" d="M 48.5 334 L 63 349.5 L 57 344.5 L 48.5 334 Z " /><path fill="rgb(0,0,0)" stroke="rgb(0,0,0)" stroke-width="1" opacity="0.792156862745098" d="M 1002.5 337 L 1002 338.5 L 1000.5 341 L 999 340.5 L 1001 340 L 1002.5 337 Z " /><path fill="rgb(0,0,0)" stroke="rgb(0,0,0)" stroke-width="1" opacity="0.792156862745098" d="M 348.5 339 L 344.5 344 L 348.5 339 Z " /><path fill="rgb(0,0,0)" stroke="rgb(0,0,0)" stroke-width="1" opacity="0.792156862745098" d="M 340.5 345 L 341 347.5 L 338 349.5 L 340.5 345 Z " /><path fill="rgb(0,0,0)" stroke="rgb(0,0,0)" stroke-width="1" opacity="0.792156862745098" d="M 994.5 345 L 995 346.5 L 993 347.5 L 994.5 345 Z " /><path fill="rgb(0,0,0)" stroke="rgb(0,0,0)" stroke-width="1" opacity="0.792156862745098" d="M 64.5 350 Q 68.4 357.6 77 360.5 L 75.5 361 L 64.5 350 Z " /><path fill="rgb(0,0,0)" stroke="rgb(0,0,0)" stroke-width="1" opacity="0.792156862745098" d="M 989.5 350 L 990 351.5 L 985.5 355 L 987.5 352 Q 990 352.7 989.5 350 Z " /><path fill="rgb(0,0,0)" stroke="rgb(0,0,0)" stroke-width="1" opacity="0.792156862745098" d="M 983.5 356 L 980.5 360 L 977 361 L 976.5 363 L 976 361.5 L 983.5 356 Z " /><path fill="rgb(0,0,0)" stroke="rgb(0,0,0)" stroke-width="1" opacity="0.792156862745098" d="M 326.5 358 L 329 358.5 L 324.5 360 L 324.5 359 L 326.5 358 Z " /><path fill="rgb(0,0,0)" stroke="rgb(0,0,0)" stroke-width="1" opacity="0.792156862745098" d="M 321.5 362 L 318.5 366 L 315 367 L 312.5 371 L 311 370.5 L 314 368.5 L 315.5 366 L 321.5 362 Z " /><path fill="rgb(0,0,0)" stroke="rgb(0,0,0)" stroke-width="1" opacity="0.792156862745098" d="M 974.5 363 L 973.5 365 L 970.5 367 L 969 367.5 L 974.5 363 Z " /><path fill="rgb(0,0,0)" stroke="rgb(0,0,0)" stroke-width="1" opacity="0.792156862745098" d="M 80.5 364 L 85 366.5 L 83.5 366 Q 79.7 366.5 80.5 364 Z " /><path fill="rgb(0,0,0)" stroke="rgb(0,0,0)" stroke-width="1" opacity="0.792156862745098" d="M 88.5 370 L 96 375.5 L 92.5 373 Q 87.8 372.2 88.5 370 Z " /><path fill="rgb(0,0,0)" stroke="rgb(0,0,0)" stroke-width="1" opacity="0.792156862745098" d="M 741.5 370 L 746.5 373 Q 748.2 370.2 750 374.5 L 747.5 373 L 746.5 374 L 744.5 372 Q 740.8 371.8 741.5 370 Z " /><path fill="rgb(0,0,0)" stroke="rgb(0,0,0)" stroke-width="1" opacity="0.792156862745098" d="M 963.5 370 L 965 370.5 L 955.5 378 L 953 378 Q 954.3 381 950.5 380 L 950.5 379 L 955.5 377 L 963.5 370 Z " /><path fill="rgb(0,0,0)" stroke="rgb(0,0,0)" stroke-width="1" opacity="0.792156862745098" d="M 307.5 372 L 311 372.5 L 307.5 373 L 307.5 372 Z " /><path fill="rgb(0,0,0)" stroke="rgb(0,0,0)" stroke-width="1" opacity="0.792156862745098" d="M 751.5 375 L 758 379.5 L 756.5 380 L 751.5 375 Z " /><path fill="rgb(0,0,0)" stroke="rgb(0,0,0)" stroke-width="1" opacity="0.792156862745098" d="M 97.5 376 L 100.5 379 L 101.5 378 L 105 379.5 L 103.5 380 L 101.5 379 L 100.5 380 L 97.5 376 Z " /><path fill="rgb(0,0,0)" stroke="rgb(0,0,0)" stroke-width="1" opacity="0.792156862745098" d="M 301.5 376 L 302 377.5 L 295.5 381 L 296.5 379 L 301 378 L 301.5 376 Z " /><path fill="rgb(0,0,0)" stroke="rgb(0,0,0)" stroke-width="1" opacity="0.792156862745098" d="M 108.5 382 L 115 386.5 L 113.5 386 Q 108.9 384.8 108.5 382 Z " /><path fill="rgb(0,0,0)" stroke="rgb(0,0,0)" stroke-width="1" opacity="0.792156862745098" d="M 290.5 382 L 291 385 L 286.5 386 L 287.5 384 Q 291 385 290.5 382 Z " /><path fill="rgb(0,0,0)" stroke="rgb(0,0,0)" stroke-width="1" opacity="0.792156862745098" d="M 762.5 382 L 770 386.5 L 767.5 385 Q 762 385.7 762.5 382 Z " /><path fill="rgb(0,0,0)" stroke="rgb(0,0,0)" stroke-width="1" opacity="0.792156862745098" d="M 945.5 382 L 944.5 384 L 936.5 386 L 936.5 385 L 939.5 385 L 945.5 382 Z " /><path fill="rgb(0,0,0)" stroke="rgb(0,0,0)" stroke-width="1" opacity="0.792156862745098" d="M 119.5 388 L 128 391.5 L 125.5 392 L 119.5 389 L 118 389.5 L 119.5 388 Z " /><path fill="rgb(0,0,0)" stroke="rgb(0,0,0)" stroke-width="1" opacity="0.792156862745098" d="M 932.5 388 L 930.5 391 L 926.5 392 L 926 390 Q 931.1 391.3 932.5 388 Z " /><path fill="rgb(0,0,0)" stroke="rgb(0,0,0)" stroke-width="1" opacity="0.792156862745098" d="M 276.5 389 L 280 389.5 L 274.5 391 L 274.5 390 L 276.5 389 Z " /><path fill="rgb(0,0,0)" stroke="rgb(0,0,0)" stroke-width="1" opacity="0.792156862745098" d="M 775.5 389 L 784 391.5 L 779.5 392 L 775.5 390 L 775.5 389 Z " /><path fill="rgb(0,0,0)" stroke="rgb(0,0,0)" stroke-width="1" opacity="0.792156862745098" d="M 920.5 393 L 921 394.5 L 915.5 397 L 914 396.5 Q 914.8 398.8 912.5 398 L 910.5 398 L 907.5 399 L 908.5 397 L 911.5 396 L 913 396.5 Q 912.3 394.3 914.5 395 L 916.5 395 Q 921 396.3 920.5 393 Z " /><path fill="rgb(0,0,0)" stroke="rgb(0,0,0)" stroke-width="1" opacity="0.792156862745098" d="M 265.5 394 L 264.5 396 L 257.5 398 L 258.5 396 L 265.5 394 Z " /><path fill="rgb(0,0,0)" stroke="rgb(0,0,0)" stroke-width="1" opacity="0.792156862745098" d="M 788.5 394 L 793.5 397 L 796.5 396 L 800 398.5 L 798.5 398 L 794.5 397 L 792.5 397 Q 788.5 396.5 788.5 394 Z " /><path fill="rgb(0,0,0)" stroke="rgb(0,0,0)" stroke-width="1" opacity="0.792156862745098" d="M 135.5 395 Q 141.3 395.3 144 398.5 L 142.5 398 L 135.5 396 L 135.5 395 Z " /><path fill="rgb(0,0,0)" stroke="rgb(0,0,0)" stroke-width="1" opacity="0.792156862745098" d="M 154.5 401 L 157 401.5 Q 154.9 404.8 154.5 401 Z " /><path fill="rgb(0,0,0)" stroke="rgb(0,0,0)" stroke-width="1" opacity="0.792156862745098" d="M 158.5 401 L 166.5 404 L 168.5 403 L 174 404.5 L 169.5 405 L 167.5 404 L 165.5 404 L 159.5 403 L 158.5 401 Z " /><path fill="rgb(0,0,0)" stroke="rgb(0,0,0)" stroke-width="1" opacity="0.792156862745098" d="M 244.5 401 L 243.5 403 L 224.5 405 L 224.5 404 L 237.5 403 L 244.5 401 Z " /><path fill="rgb(0,0,0)" stroke="rgb(0,0,0)" stroke-width="1" opacity="0.792156862745098" d="M 812.5 401 L 815.5 403 L 819.5 402 L 824.5 404 L 826.5 403 L 833 405.5 L 831.5 405 L 825.5 404 L 822.5 405 Q 821.1 402.4 816.5 403 L 814.5 403 L 812.5 401 Z " /><path fill="rgb(0,0,0)" stroke="rgb(0,0,0)" stroke-width="1" opacity="0.792156862745098" d="M 895.5 401 L 894.5 403 L 888.5 403 L 875.5 406 L 876.5 404 L 882.5 404 L 895.5 401 Z " /><path fill="rgb(0,0,0)" stroke="rgb(0,0,0)" stroke-width="1" opacity="0.792156862745098" d="M 835.5 404 L 836.5 406 L 834 405.5 L 835.5 404 Z " /><path fill="rgb(0,0,0)" stroke="rgb(0,0,0)" stroke-width="1" opacity="0.792156862745098" d="M 867.5 404 L 868.5 406 L 867.5 404 Z " /><path fill="rgb(0,0,0)" stroke="rgb(0,0,0)" stroke-width="1" opacity="1" d="M 204.5 0 L 205 2 L 211.5 2 L 212 0.5 L 213 0.5 Q 212.4 3.3 218.5 2 L 221.5 3 L 223.5 3 L 230.5 4 L 232.5 4 L 239.5 5 L 241.5 5 L 249.5 8 L 251.5 7 L 261.5 11 L 263.5 11 L 269 12 L 270.5 15 L 274.5 16 L 276.5 16 Q 282.8 16.8 285.5 21 L 293.5 23 L 301.5 29 L 310.5 33 L 321.5 42 L 325 43 L 327.5 47 L 331.5 49 L 356 73.5 L 358.5 78 L 362 80.5 L 362 82.5 L 374 97.5 L 374 100.5 L 380 108.5 L 388 124.5 L 390 135 Q 392.7 133.9 392 136.5 L 395 143.5 L 396 150.5 L 398 152.5 L 397 155.5 L 399 157.5 L 402 174.5 L 401 176.5 L 402 177.5 L 402 185 L 404 185.5 L 403 186.5 L 403 198 Q 406 197 405 200 Q 401 198.6 403 205.5 Q 407 207.5 403 209.5 L 403 217.5 L 402 218.5 L 404 221.5 L 402 223.5 L 401 230.5 L 401 232.5 Q 401.4 243.9 397 250.5 L 397.5 252 Q 394.8 251.4 396 257.5 L 394 260.5 L 392 271 Q 388.3 269.6 390 275.5 L 387 279.5 L 387 282.5 L 380 294.5 L 380 297 Q 376.3 295.5 377 298.5 L 377.5 300 Q 374.9 299.2 376 302.5 Q 373 303.8 374 308 Q 369.9 306.3 371 310.5 L 368.5 314 Q 366.3 313.3 367 315.5 L 359 324.5 L 359 327 L 356 328.5 Q 357.1 331.8 354.5 331 L 352 332 Q 350.1 340.7 342.5 345 Q 338.8 343.8 340 347.5 Q 337.6 351.9 332 352 L 332 354 L 330 354 Q 331.1 356.7 328.5 356 L 328.5 358 L 324 359 Q 325.7 363.1 321.5 362 L 314 367.5 L 312.5 370 Q 309.9 369.3 311 372 L 307 372 L 307 373.5 L 305.5 376 L 303.5 376 L 301 376 Q 302.3 379 298.5 378 L 292.5 382 L 290 382 Q 291.3 385 287.5 384 L 286 387 L 274 390 Q 275.8 395.2 268.5 393 L 257 397.5 Q 257.5 400.5 250.5 399 L 243.5 402 L 224 404 L 223.5 406 L 209.5 406 L 208.5 407 L 191.5 407 Q 190.3 404.8 185.5 406 L 183.5 406 L 176.5 405 L 174 406 Q 175.3 402.3 169.5 404 L 167.5 403 L 165.5 403 L 156.5 401 L 154.5 401 L 144.5 399 L 140.5 396 L 128 393 Q 129.3 390 125.5 391 L 119.5 388 Q 118 390.5 116.5 387 L 105 380.5 Q 105.8 378.3 103.5 379 L 101.5 378 L 100.5 379 L 97.5 376 L 85 367.5 L 83.5 365 L 81.5 365 Q 79.3 360.3 73.5 359 L 58 344.5 L 48 333.5 L 46 328 L 42 325.5 L 39 319 L 36 317.5 L 22 293.5 Q 20.7 285.3 16 280.5 L 14 271 L 12 270.5 L 12.5 269 Q 9.5 269.9 11 265.5 L 3 234.5 L 2 201 Q -1 202 0 199 L 2 198.5 L 2 190.5 L 3 188.5 L 2 184.5 L 4 175.5 L 3 173.5 Q 6 170.5 5 163.5 L 8 159.5 L 9 151.5 Q 6.5 150 10 148.5 L 11 142 Q 13.7 143.1 13 140.5 Q 10.5 139 14 137.5 L 16 133.5 L 17 126.5 L 19 124.5 L 18.5 123 L 20 123 L 20 120 Q 22.7 121.1 22 118.5 L 26 109 Q 28.7 110.1 28 107.5 L 27.5 106 Q 29.8 106.8 29 104.5 L 32 99 L 35 97.5 L 36 93 Q 38.7 94.1 38 91.5 L 37.5 90 L 41 88.5 Q 39.5 84.1 42.5 85 L 45 84 L 44 81.5 Q 52.1 76.2 55 67 L 59 65.5 L 61 62.5 L 67 57.5 Q 65.8 53.8 69.5 55 L 76 49.5 Q 75.3 47.3 77.5 48 L 80 47 L 82.5 43 L 85 43 Q 83.9 40.3 86.5 41 L 91 38.5 L 92.5 36 L 99 34 L 100.5 31 Q 104.5 26.6 111 26 Q 109.8 23 113.5 24 Q 115.5 21.2 120 22 L 120 20 L 123 20 Q 121.8 17 125.5 18 L 136 13.5 Q 135.4 10.8 141.5 12 L 144.5 10 L 146.5 11 L 148.5 9 Q 153 10 154 7.5 L 154.5 6 L 155.5 8 L 157.5 8 L 161 8 L 161.5 5 L 167.5 5 L 168.5 4 L 179.5 3 L 182 4 Q 180.7 0.7 185.5 2 L 189.5 3 L 190.5 2 L 204 2 L 204.5 0 Z M 206 103 L 205 106 L 204 104 L 198 104 L 196 106 Q 190 105 189 107 L 187 106 Q 182 105 183 108 Q 176 107 174 110 Q 168 109 170 113 L 164 113 L 164 115 Q 160 114 159 118 Q 154 116 155 120 L 152 121 L 149 125 L 147 125 L 136 135 L 130 142 Q 131 145 128 144 L 124 149 Q 125 151 123 150 L 123 152 L 119 153 L 119 157 L 116 160 L 113 169 Q 114 171 111 170 L 109 174 L 105 189 L 106 191 Q 106 196 103 198 Q 102 202 105 203 L 103 206 Q 101 212 105 211 Q 106 214 103 213 Q 102 217 105 216 L 105 224 L 109 238 Q 108 241 111 240 L 115 251 Q 114 254 117 253 L 126 267 Q 136 278 150 287 Q 152 286 151 289 L 159 293 L 161 292 L 162 295 L 172 299 L 174 298 L 183 302 L 185 301 L 193 303 L 195 303 L 209 303 L 217 301 Q 224 303 223 299 L 229 297 Q 236 298 235 295 Q 239 296 241 292 L 245 292 L 253 286 Q 256 287 255 284 L 258 284 L 259 282 L 266 276 Q 268 277 267 275 L 270 273 L 275 267 L 278 265 L 279 262 L 283 259 L 292 245 Q 291 241 294 242 L 293 240 L 300 226 L 299 223 L 301 222 L 303 210 L 303 208 Q 305 195 302 188 L 302 186 L 301 182 L 301 180 Q 302 177 299 178 L 296 166 L 294 164 L 294 163 L 292 162 Q 293 157 289 155 Q 290 151 288 152 L 283 145 L 264 125 Q 260 126 261 124 L 250 116 Q 248 112 247 115 L 234 108 L 232 109 L 224 106 L 218 106 Q 218 103 212 104 L 212 106 L 211 104 L 206 103 Z " /><path fill="rgb(0,0,0)" stroke="rgb(0,0,0)" stroke-width="1" opacity="1" d="M 847 0 Q 850.1 -0.8 849.5 2 L 854.5 2 Q 856.5 -2 858.5 2 L 864.5 1 L 871 2 L 871.5 0 L 872 2 L 879.5 3 L 881.5 3 Q 887.6 2.4 890.5 5 L 893.5 4 L 896.5 6 L 902.5 6 L 907.5 9 L 912.5 9 L 918.5 11 L 922.5 14 L 923.5 12 L 924 14 L 927.5 14 L 929.5 16 L 937.5 18 L 962 31.5 L 963.5 34 L 965.5 34 L 971.5 39 L 972.5 37 L 976.5 42 L 980 43.5 L 982.5 47 L 988 50.5 Q 987.3 52.8 989.5 52 L 994 58 L 1000 62.5 L 1001.5 65 L 1007 69.5 Q 1006.3 71.8 1008.5 71 L 1014.5 79 L 1016 79.5 L 1015.5 81 Q 1017.8 80.3 1017 82.5 L 1026 94.5 L 1027 99 Q 1029.7 97.9 1029 100.5 L 1032 104.5 L 1033 110 L 1036 111.5 L 1041 121.5 L 1040 124 Q 1043 122.8 1042 126.5 L 1045 135 L 1047 135.5 L 1046 138.5 L 1049 142.5 L 1052 161 Q 1056 159.6 1054 166.5 L 1057 179.5 L 1056 182.5 L 1057 183.5 L 1057 192 Q 1060.3 190.9 1059 195 L 1057 195.5 L 1057 202 Q 1060.7 200.8 1059 206 Q 1055.3 204.8 1057 210 Q 1060 209 1059 212 L 1057 212.5 L 1057 223.5 L 1054 238.5 L 1054 240.5 L 1054 244.5 Q 1050.8 243.5 1052 249.5 L 1049 257.5 L 1048 265.5 Q 1043.3 269.3 1043 277.5 L 1040 280.5 L 1042 281.5 L 1038 284 L 1034.5 294 L 1033 294.5 L 1033.5 296 Q 1031.3 295.3 1032 297.5 L 1033 298.5 L 1030 301.5 Q 1031.1 304.8 1028.5 304 Q 1024.3 305.3 1025 310 Q 1021.7 308.7 1023 313.5 L 1019 316 L 1019 320 L 1017.5 320 L 1014 326 Q 1011.3 324.9 1012 327.5 L 1008 330.5 L 1005 334.5 L 1005 337 L 1001 338.5 Q 1001.7 341.1 999 340 L 999 342.5 Q 997.8 345.8 994 345 L 993 349 L 989 350 Q 990.1 352.7 987.5 352 L 985 356 L 976 361.5 Q 976.8 363.8 974.5 363 Q 969.2 369.2 960.5 372 L 955.5 377 L 944.5 383 L 936 385 Q 937.8 389.5 932.5 388 Q 931.1 391.3 926 390 L 924.5 393 L 920.5 393 Q 921.5 396 916.5 395 L 914.5 395 Q 912.3 394.3 913 396.5 L 910.5 397 L 900.5 401 L 888.5 402 L 882.5 404 L 876.5 404 L 874.5 406 L 869.5 406 L 867 404.5 Q 867.5 407.5 860.5 406 L 858.5 407 L 855.5 406 L 853.5 406 L 850.5 407 Q 849.2 404.8 844.5 406 L 842.5 407 L 837.5 406 L 835.5 404 Q 833.5 408 831.5 404 L 825.5 403 L 822.5 404 Q 821.1 401.4 816.5 402 L 814.5 402 L 806.5 400 L 804.5 400 L 794.5 396 L 792.5 396 L 784 393 Q 785.4 389.3 779.5 391 L 770.5 387 L 767.5 384 L 760.5 382 L 747.5 372 Q 746 374.5 744.5 371 L 729.5 360 L 701 331.5 L 690 317.5 L 689 313.5 L 682 304.5 L 682 302 L 680 301.5 L 680.5 300 L 678 298.5 L 675 288 Q 672 289.3 673 285.5 L 665 267.5 L 663 256.5 L 661 254.5 Q 663.5 253 660 251.5 L 657 226 L 655 225.5 L 656 223.5 L 655.5 222 Q 658.1 222.7 657 220 L 655 219.5 L 656 218.5 L 656 187.5 L 657 186.5 L 658 168.5 L 660 163.5 L 659 161.5 L 661 155 Q 665 156.4 663 149.5 L 666 142.5 Q 665.4 137.1 667 135 Q 669.7 136.1 669 133.5 L 670 131.5 L 669.5 130 Q 671.8 130.8 671 128.5 L 679.5 111 L 681 110.5 L 680.5 109 L 682 109 L 682 105 Q 685 106.3 684 102.5 L 686.5 98 Q 689.5 98.7 688 95 L 690 95 L 690 92.5 L 697 83 L 700 81.5 L 701 78 L 704 76.5 L 705.5 73 Q 707.8 73.8 707 71.5 L 710.5 67 Q 713.8 68.1 713 65.5 L 716 64 Q 715.3 60.2 718.5 59 L 721 57.5 L 722.5 55 Q 725.8 56.1 725 53.5 L 728 52 Q 726.3 47.5 731.5 49 L 733 46 L 741 40.5 Q 740.3 38.3 742.5 39 Q 745 34.2 751 34 Q 749.3 29.9 753.5 31 L 755.5 29 L 767 26 Q 765.3 21.9 769.5 23 L 777.5 18 L 790 14 Q 788.7 10.7 793.5 12 L 799.5 9 L 810 8 Q 808.8 5 812.5 6 L 829.5 3 L 831.5 4 L 835.5 2 L 839.5 3 L 840.5 2 L 847 2 L 847 0 Z M 856 103 L 855 104 Q 847 103 848 106 Q 845 107 846 104 Q 843 103 844 106 Q 841 108 834 107 L 828 110 Q 821 108 823 113 Q 818 112 816 116 Q 810 115 812 119 L 809 119 L 802 124 Q 803 126 800 125 L 798 128 L 791 134 Q 788 133 789 137 L 786 139 Q 787 141 785 140 L 773 155 Q 774 158 771 157 Q 770 164 765 168 L 766 170 L 764 170 L 764 175 Q 761 177 761 184 L 759 186 L 760 190 L 758 190 L 758 202 L 757 203 L 758 206 L 757 210 L 758 215 L 758 222 L 760 222 L 759 224 Q 758 228 761 229 L 761 233 L 763 236 L 763 240 L 770 251 Q 769 254 772 253 Q 774 254 773 258 L 780 267 L 803 287 L 805 286 L 806 289 L 809 289 L 821 297 L 823 296 Q 825 300 832 299 L 834 301 L 835 299 L 835 301 L 848 302 L 849 303 L 853 302 L 857 303 L 867 301 L 870 302 Q 874 303 875 299 L 881 299 L 890 295 Q 892 296 891 293 L 896 293 L 902 289 Q 901 286 906 287 L 907 284 Q 912 285 914 280 Q 917 281 916 279 L 920 277 L 921 273 L 926 271 L 928 268 L 928 266 L 931 266 Q 930 263 933 264 L 933 262 L 937 260 L 936 259 L 940 254 Q 939 250 942 251 Q 944 250 942 249 L 944 248 L 946 245 Q 945 240 948 241 L 951 231 L 953 229 L 954 220 L 956 218 Q 954 211 957 210 L 957 195 L 956 194 L 957 192 L 956 188 Q 958 181 954 182 L 952 171 L 950 168 Q 951 164 948 165 Q 947 155 940 151 L 940 148 L 937 145 L 937 144 L 913 120 L 911 121 L 902 114 L 894 110 L 893 112 L 892 110 L 885 107 L 879 107 L 874 104 L 871 106 L 865 103 L 862 104 L 856 103 Z " /><path fill="rgb(0,0,0)" stroke="rgb(0,0,0)" stroke-width="1" opacity="1" d="M 535.5 266 L 963 692.5 L 881.5 775 L 535.5 431 L 190.5 775 L 109 692.5 L 535.5 266 Z " /></svg>